<?xml version="1.0" encoding="UTF-8" standalone="no" ?>
<!DOCTYPE svg PUBLIC "-//W3C//DTD SVG 1.1//EN" "http://www.w3.org/Graphics/SVG/1.1/DTD/svg11.dtd">
<svg xmlns="http://www.w3.org/2000/svg" xmlns:xlink="http://www.w3.org/1999/xlink" version="1.1" width="1080" height="1080" viewBox="0 0 1080 1080" xml:space="preserve">
<desc>Created with Fabric.js 5.2.4</desc>
<defs>
</defs>
<g transform="matrix(1 0 0 1 540 540)" id="b24ac4c5-d45c-48e2-a9e5-1bfcf85a7407"  >
</g>
<g transform="matrix(1 0 0 1 540 540)" id="a6f3a3c6-ebdb-4726-85b5-8db362c50025"  >
<rect style="stroke: none; stroke-width: 1; stroke-dasharray: none; stroke-linecap: butt; stroke-dashoffset: 0; stroke-linejoin: miter; stroke-miterlimit: 4; fill: rgb(255,255,255); fill-rule: nonzero; opacity: 1; visibility: hidden;" vector-effect="non-scaling-stroke"  x="-540" y="-540" rx="0" ry="0" width="1080" height="1080" />
</g>
<g transform="matrix(1.65 0 0 1.65 540.48 540.26)"  >
<g style="" vector-effect="non-scaling-stroke"   >
		<g transform="matrix(1 0 0 1 -249.12 -0.63)"  >
<path style="stroke: none; stroke-width: 1; stroke-dasharray: none; stroke-linecap: butt; stroke-dashoffset: 0; stroke-linejoin: miter; stroke-miterlimit: 4; fill: rgb(0,0,0); fill-rule: nonzero; opacity: 1;" vector-effect="non-scaling-stroke"  transform=" translate(70.98, -173.72)" d="M 0 0 C -1.66373107 3.61491305 -3.83721818 6.76971086 -6.0625 10.0625 C -32.92694086 51.32309172 -40.12423787 107.94942015 -40.16796875 156.3046875 C -40.17120095 157.63965893 -40.17456629 158.97463004 -40.17805481 160.30960083 C -40.18398624 163.09117448 -40.18590121 165.87271737 -40.18530273 168.65429688 C -40.18522195 171.4502618 -40.19209816 174.24606121 -40.20581055 177.04199219 C -40.28979044 194.45005593 -39.86897986 211.67501858 -38 229 C -37.92665436 229.70455322 -37.85330872 230.40910645 -37.77774048 231.13500977 C -33.94260492 267.54616382 -26.77433425 316.10411938 -1.08203125 344.40625 C -0.72496094 344.9321875 -0.36789063 345.458125 0 346 C -0.33 346.99 -0.66 347.98 -1 349 C -38.7905875 346.74848879 -69.21876491 331.02028662 -94.73657227 302.9921875 C -119.95128478 274.42200141 -134.03175792 238.2625897 -140 201 C -140.11126221 200.31147949 -140.22252441 199.62295898 -140.3371582 198.91357422 C -143.41195107 176.19595657 -141.99660378 151.25690252 -137 129 C -136.79101074 128.0311084 -136.58202148 127.0622168 -136.36669922 126.06396484 C -130.59258804 99.85771791 -119.26358684 75.32929422 -103 54 C -102.37867188 53.154375 -101.75734375 52.30875 -101.1171875 51.4375 C -91.06416416 38.2075472 -78.77251659 27.19951422 -65 18 C -64.14148438 17.41863281 -63.28296875 16.83726563 -62.3984375 16.23828125 C -47.41723801 6.69340331 -18.00956354 -6.00318785 0 0 Z" stroke-linecap="round" />
</g>
		<g transform="matrix(1 0 0 1 177.89 9.65)"  >
<path style="stroke: none; stroke-width: 1; stroke-dasharray: none; stroke-linecap: butt; stroke-dashoffset: 0; stroke-linejoin: miter; stroke-miterlimit: 4; fill: rgb(0,0,0); fill-rule: nonzero; opacity: 1;" vector-effect="non-scaling-stroke"  transform=" translate(-135.03, -109)" d="M 0 0 C 4.15421735 0.46613586 7.69696212 1.52058778 11.54296875 3.1237793 C 12.60249756 3.56107864 13.66202637 3.99837799 14.75366211 4.44892883 C 15.88682861 4.92339951 17.01999512 5.39787018 18.1875 5.88671875 C 20.00719581 6.6385211 21.82689977 7.39030451 23.64710999 8.14086056 C 24.89963238 8.65752477 26.15185736 9.17491055 27.40379333 9.69299412 C 33.72881502 12.30909856 40.08058689 14.85698587 46.4375 17.39453125 C 47.54104324 17.83566254 48.64458649 18.27679382 49.78157043 18.73129272 C 52.03478185 19.63178561 54.28814481 20.53189943 56.54165649 21.43164062 C 60.11498877 22.85841311 63.68779711 24.28649115 67.26049805 25.71484375 C 77.55314685 29.82931507 87.84718534 33.94026708 98.14453125 38.04296875 C 113.88757856 44.31822877 129.59242783 50.67645889 145.25073242 57.16064453 C 152.03128531 59.96685051 158.82214811 62.73706541 165.65698242 65.40917969 C 197.33975283 77.80773936 227.24733344 96.95908744 246 126 C 246.82177734 127.18529297 246.82177734 127.18529297 247.66015625 128.39453125 C 266.15153214 155.81568319 271.76938394 185.52805207 271 218 C 265.73076737 217.4465539 261.24056079 216.13023198 256.34765625 214.078125 C 255.62339447 213.78196289 254.89913269 213.48580078 254.15292358 213.18066406 C 251.78638496 212.21105304 249.42454695 211.23049586 247.0625 210.25 C 245.40211291 209.5678596 243.74138201 208.88655551 242.08032227 208.20605469 C 238.68902344 206.81562769 235.29937781 205.42128945 231.91113281 204.0234375 C 225.41684799 201.3453819 218.91181252 198.69393263 212.40390015 196.04919434 C 211.09306265 195.5164371 209.78237324 194.98331537 208.47183228 194.4498291 C 197.80822881 190.10955541 187.10956583 185.86469007 176.38061523 181.68847656 C 170.22897174 179.29016406 164.11623809 176.81819211 158.02783203 174.26367188 C 153.83490252 172.51374419 149.62308993 170.8116511 145.41162109 169.10693359 C 108.61165714 154.19701964 75.112283 138.83311077 47 110 C 46.39285156 109.43796875 45.78570312 108.8759375 45.16015625 108.296875 C 29.30292312 93.27121467 17.45142707 74.02455243 9 54 C 8.56042969 53.01386719 8.12085938 52.02773437 7.66796875 51.01171875 C 1.03455314 35.23982122 -1.08813397 18.00985532 -1 1 C -0.67 0.67 -0.34 0.34 0 0 Z" stroke-linecap="round" />
</g>
		<g transform="matrix(1 0 0 1 272.48 -119.17)"  >
<path style="stroke: none; stroke-width: 1; stroke-dasharray: none; stroke-linecap: butt; stroke-dashoffset: 0; stroke-linejoin: miter; stroke-miterlimit: 4; fill: rgb(0,0,0); fill-rule: nonzero; opacity: 1;" vector-effect="non-scaling-stroke"  transform=" translate(-47.63, -56.18)" d="M 0 0 C 28.67873362 -1.07321664 54.97022089 8.68876076 76.625 27.25 C 87.07621841 37.13628768 94.23310376 50.07172863 95.25 64.5625 C 95.00451324 76.50208344 89.91454027 90.1894817 81.6875 99 C 72.33134509 107.19954415 59.07505986 113.10212603 46.3671875 112.3828125 C 33.38103436 110.28274153 22.343767 105.79018994 13.8203125 95.55859375 C 5.89084938 84.41310374 2.91038037 73.54481013 4 60 C 4.713638 56.8745781 5.85178451 53.98824283 7 51 C 11.33720289 38.09721005 13.18162815 25.99889415 8 13 C 6.32391514 10.45736786 4.55646657 8.20213998 2.5234375 5.9375 C 0.93444443 3.91662676 0.41466694 2.5104161 0 0 Z" stroke-linecap="round" />
</g>
		<g transform="matrix(1 0 0 1 -56.54 -120.13)"  >
<path style="stroke: none; stroke-width: 1; stroke-dasharray: none; stroke-linecap: butt; stroke-dashoffset: 0; stroke-linejoin: miter; stroke-miterlimit: 4; fill: rgb(0,0,0); fill-rule: nonzero; opacity: 1;" vector-effect="non-scaling-stroke"  transform=" translate(-46.61, -55.22)" d="M 0 0 C 30.76821992 0.72738109 57.77407402 9.91068594 79.671875 32.359375 C 88.5496957 42.42884948 93.45551944 53.97089932 93.20703125 67.45703125 C 92.22032331 79.57678352 86.99635543 91.23058597 77.92578125 99.4765625 C 67.68239088 107.57985306 56.38341518 110.78466421 43.328125 110.40625 C 31.45620788 108.9570958 21.73642772 103.65381404 13.97265625 94.6484375 C 6.37692082 84.53149601 2.82585525 72.59825585 4 60 C 5.25397309 54.77304287 6.90930825 49.68337553 8.93359375 44.703125 C 12.40250946 35.87315773 12.56621512 24.98635925 9.05859375 16.125 C 7.36161163 12.7185119 5.43680287 9.47647477 3.40234375 6.26171875 C 2.13537639 4.21833686 1.03654835 2.16732836 0 0 Z" stroke-linecap="round" />
</g>
		<g transform="matrix(1 0 0 1 115.35 121.78)"  >
<path style="stroke: none; stroke-width: 1; stroke-dasharray: none; stroke-linecap: butt; stroke-dashoffset: 0; stroke-linejoin: miter; stroke-miterlimit: 4; fill: rgb(0,0,0); fill-rule: nonzero; opacity: 1;" vector-effect="non-scaling-stroke"  transform=" translate(-73.5, -54.13)" d="M 0 0 C 3.77728908 1.25909636 4.12824098 2.44116049 6.125 5.8125 C 12.52066257 16.16038828 19.86222169 25.19561205 28.203125 33.9921875 C 30.09724098 35.99553551 31.89088674 38.04600285 33.63671875 40.1796875 C 35.53247302 42.44205871 37.32621448 44.34890716 39.5625 46.25 C 40.25214844 46.83652344 40.94179688 47.42304688 41.65234375 48.02734375 C 42.42707031 48.67832031 43.20179688 49.32929688 44 50 C 45.33224609 51.14662109 45.33224609 51.14662109 46.69140625 52.31640625 C 75.59425381 76.90884246 110.36737903 95.94536507 147 106 C 145 108 145 108 142.52620697 108.24888897 C 141.47611702 108.2483442 140.42602707 108.24779943 139.34411621 108.24723816 C 138.14103317 108.25143265 136.93795013 108.25562714 135.69841003 108.25994873 C 134.35818401 108.25446486 133.0179588 108.24878186 131.67773438 108.24291992 C 130.27183443 108.2439924 128.86593491 108.24593057 127.46003723 108.24867249 C 123.63571973 108.25352949 119.81151849 108.24585452 115.98721504 108.23571944 C 111.99094901 108.22695259 107.99468677 108.22869612 103.99841309 108.2290802 C 97.28651986 108.22814292 90.57467177 108.21945043 83.86279297 108.20581055 C 76.09543836 108.19008435 68.32813321 108.18481241 60.56076384 108.1855461 C 53.09847036 108.18615586 45.63619304 108.18105519 38.17390442 108.17275429 C 34.99371718 108.1692177 31.81353567 108.1673905 28.63334656 108.16686058 C 24.89055754 108.16585811 21.14781027 108.15976932 17.40503502 108.14969444 C 16.02875207 108.14676661 14.65246431 108.14554464 13.27617836 108.14612198 C 11.40274233 108.14661058 9.52930811 108.14035414 7.65588379 108.13371277 C 6.60579384 108.13203692 5.55570389 108.13036108 4.47379303 108.12863445 C 2 108 2 108 0 107 C 0 71.69 0 36.38 0 0 Z" stroke-linecap="round" />
</g>
		<g transform="matrix(1 0 0 1 -69.15 115.15)"  >
<path style="stroke: none; stroke-width: 1; stroke-dasharray: none; stroke-linecap: butt; stroke-dashoffset: 0; stroke-linejoin: miter; stroke-miterlimit: 4; fill: rgb(0,0,0); fill-rule: nonzero; opacity: 1;" vector-effect="non-scaling-stroke"  transform=" translate(45, -60.5)" d="M 0 0 C 0.66 0 1.32 0 2 0 C 2 39.93 2 79.86 2 121 C -29.02 121 -60.04 121 -92 121 C -89.77631579 116.55263158 -89.77631579 116.55263158 -86.75 114.5 C -77.52508667 107.87222863 -68.82560841 100.22806828 -61 92 C -56 87 -56 87 -54.30078125 85.40625 C -48.33632351 79.69585638 -43.38899411 73.33571845 -38.38476562 66.79492188 C -37.07150481 65.09268395 -35.73639333 63.41096953 -34.390625 61.734375 C -20.67227456 44.53220899 -10.28134496 24.58113485 -2.27734375 4.1484375 C -1 1 -1 1 0 0 Z" stroke-linecap="round" />
</g>
		<g transform="matrix(1 0 0 1 115.35 121.78)"  >
<path style="stroke: none; stroke-width: 1; stroke-dasharray: none; stroke-linecap: butt; stroke-dashoffset: 0; stroke-linejoin: miter; stroke-miterlimit: 4; fill: rgb(0,0,0); fill-rule: nonzero; opacity: 1;" vector-effect="non-scaling-stroke"  transform=" translate(-73.5, -54.13)" d="M 0 0 C 3 1 3 1 4.75 3.4375 C 5.36875 4.7059375 5.36875 4.7059375 6 6 C 5.67 6.66 5.34 7.32 5 8 C 4.01 7.67 3.02 7.34 2 7 C 2 39.67 2 72.34 2 106 C 63.38 105.505 63.38 105.505 126 105 C 125.67 103.35 125.34 101.7 125 100 C 122.69 99.67 120.38 99.34 118 99 C 118 98.34 118 97.68 118 97 C 123.13145021 97.65767004 127.67317225 99.16879422 132.5 100.9375 C 133.96858849 101.46789532 135.43733571 101.99785139 136.90625 102.52734375 C 137.59976563 102.7785498 138.29328125 103.02975586 139.0078125 103.28857422 C 141.65797891 104.23496943 144.32580793 105.12411747 147 106 C 145 108 145 108 142.52620697 108.24888897 C 141.47611702 108.2483442 140.42602707 108.24779943 139.34411621 108.24723816 C 138.14103317 108.25143265 136.93795013 108.25562714 135.69841003 108.25994873 C 134.35818401 108.25446486 133.0179588 108.24878186 131.67773438 108.24291992 C 130.27183443 108.2439924 128.86593491 108.24593057 127.46003723 108.24867249 C 123.63571973 108.25352949 119.81151849 108.24585452 115.98721504 108.23571944 C 111.99094901 108.22695259 107.99468677 108.22869612 103.99841309 108.2290802 C 97.28651986 108.22814292 90.57467177 108.21945043 83.86279297 108.20581055 C 76.09543836 108.19008435 68.32813321 108.18481241 60.56076384 108.1855461 C 53.09847036 108.18615586 45.63619304 108.18105519 38.17390442 108.17275429 C 34.99371718 108.1692177 31.81353567 108.1673905 28.63334656 108.16686058 C 24.89055754 108.16585811 21.14781027 108.15976932 17.40503502 108.14969444 C 16.02875207 108.14676661 14.65246431 108.14554464 13.27617836 108.14612198 C 11.40274233 108.14661058 9.52930811 108.14035414 7.65588379 108.13371277 C 6.60579384 108.13203692 5.55570389 108.13036108 4.47379303 108.12863445 C 2 108 2 108 0 107 C 0 71.69 0 36.38 0 0 Z" stroke-linecap="round" />
</g>
		<g transform="matrix(1 0 0 1 -216.71 -27.35)"  >
<path style="stroke: none; stroke-width: 1; stroke-dasharray: none; stroke-linecap: butt; stroke-dashoffset: 0; stroke-linejoin: miter; stroke-miterlimit: 4; fill: rgb(0,0,0); fill-rule: nonzero; opacity: 1;" vector-effect="non-scaling-stroke"  transform=" translate(2.56, -58)" d="M 0 0 C 0.33 0 0.66 0 1 0 C 0.25921328 9.61497585 -0.77751437 19.18022226 -1.89453125 28.7578125 C -3.39189712 41.88623246 -4.1473176 54.93710704 -4.31640625 68.1484375 C -4.33705309 69.54090887 -4.35805108 70.93337508 -4.37937927 72.32583618 C -4.43380413 75.9390842 -4.48355407 79.55238098 -4.53222656 83.16571045 C -4.58303414 86.87353705 -4.63840645 90.58129543 -4.69335938 94.2890625 C -4.79996285 101.52598342 -4.90161243 108.76296222 -5 116 C -5.33 116 -5.66 116 -6 116 C -6.02319135 104.25597267 -6.04094973 92.51195082 -6.05181217 80.76790524 C -6.05702613 75.31441882 -6.06409678 69.86094809 -6.07543945 64.4074707 C -6.08632117 59.14254668 -6.09228805 53.87763773 -6.09487724 48.61270332 C -6.09672196 46.60611293 -6.10032422 44.59952334 -6.10573006 42.59293938 C -6.11301061 39.77800603 -6.11398798 36.96313464 -6.11352539 34.14819336 C -6.11712067 33.32244308 -6.12071594 32.49669281 -6.12442017 31.6459198 C -6.10217949 19.10217949 -6.10217949 19.10217949 -4 17 C -3.84084321 15.46148441 -3.72293375 13.91862239 -3.625 12.375 C -3.2114474 7.65643259 -2.10945353 4.21890705 0 0 Z" stroke-linecap="round" />
</g>
		<g transform="matrix(1 0 0 1 -27.15 115.65)"  >
<path style="stroke: none; stroke-width: 1; stroke-dasharray: none; stroke-linecap: butt; stroke-dashoffset: 0; stroke-linejoin: miter; stroke-miterlimit: 4; fill: rgb(0,0,0); fill-rule: nonzero; opacity: 1;" vector-effect="non-scaling-stroke"  transform=" translate(4, -59)" d="M 0 0 C 0 38.94 0 77.88 0 118 C -0.33 118 -0.66 118 -1 118 C -1.33 82.36 -1.66 46.72 -2 10 C -3.32 11.32 -4.64 12.64 -6 14 C -6.66 14.66 -7.32 15.32 -8 16 C -7.37099631 12.3945768 -6.41162002 9.15080065 -5.0625 5.75 C -4.72347656 4.87859375 -4.38445312 4.0071875 -4.03515625 3.109375 C -3.03021304 1.06156619 -2.45371952 0 0 0 Z" stroke-linecap="round" />
</g>
		<g transform="matrix(1 0 0 1 302.91 97.15)"  >
<path style="stroke: none; stroke-width: 1; stroke-dasharray: none; stroke-linecap: butt; stroke-dashoffset: 0; stroke-linejoin: miter; stroke-miterlimit: 4; fill: rgb(0,0,0); fill-rule: nonzero; opacity: 1;" vector-effect="non-scaling-stroke"  transform=" translate(6.94, -21.5)" d="M 0 0 C 0.33 0 0.66 0 1 0 C 4.08679672 14.38667755 4.34779762 28.32115695 4 43 C -1.4367976 42.44147333 -5.9183367 41.06042383 -10.9375 38.9375 C -11.62134766 38.65583984 -12.30519531 38.37417969 -13.00976562 38.08398438 C -14.67613946 37.3964595 -16.33850727 36.69923825 -18 36 C -13.47907032 34.54393481 -10.48351204 35.72967159 -6 37 C -6 37.66 -6 38.32 -6 39 C -4.02 39 -2.04 39 0 39 C 0 26.13 0 13.26 0 0 Z" stroke-linecap="round" />
</g>
		<g transform="matrix(1 0 0 1 -317.25 -6.35)"  >
<path style="stroke: none; stroke-width: 1; stroke-dasharray: none; stroke-linecap: butt; stroke-dashoffset: 0; stroke-linejoin: miter; stroke-miterlimit: 4; fill: rgb(0,0,0); fill-rule: nonzero; opacity: 1;" vector-effect="non-scaling-stroke"  transform=" translate(1.11, -33)" d="M 0 0 C 0.33 0 0.66 0 1 0 C 1.12109403 7.61546931 0.90694864 15.15640815 0.42822266 22.75683594 C -0.0976414 31.7057506 -0.31659636 40.66494925 -0.5625 49.625 C -0.58464569 50.4314093 -0.60679138 51.2378186 -0.62960815 52.06866455 C -0.75633818 56.71235982 -0.8795462 61.35613789 -1 66 C -1.33 66 -1.66 66 -2 66 C -2.72105641 60.12967604 -3.16746505 54.3882258 -3.203125 48.4765625 C -3.20991272 47.69607544 -3.21670044 46.91558838 -3.22369385 46.1114502 C -3.24050938 43.61592542 -3.2468764 41.12057757 -3.25 38.625 C -3.25233643 37.77838806 -3.25467285 36.93177612 -3.25708008 36.05950928 C -3.26987118 23.81057957 -2.78776449 11.98074979 0 0 Z" stroke-linecap="round" />
</g>
		<g transform="matrix(1 0 0 1 -69.15 169.65)"  >
<path style="stroke: none; stroke-width: 1; stroke-dasharray: none; stroke-linecap: butt; stroke-dashoffset: 0; stroke-linejoin: miter; stroke-miterlimit: 4; fill: rgb(0,0,0); fill-rule: nonzero; opacity: 1;" vector-effect="non-scaling-stroke"  transform=" translate(-36, -5)" d="M 0 0 C 0.66 0.33 1.32 0.66 2 1 C 0.515 2.485 0.515 2.485 -1 4 C -0.67 4.66 -0.34 5.32 0 6 C -0.66 6 -1.32 6 -2 6 C -2 6.66 -2 7.32 -2 8 C 39.085 8.495 39.085 8.495 81 9 C 81 9.33 81 9.66 81 10 C 51.3 10 21.6 10 -9 10 C -6.06547145 5.10911909 -4.29561767 3.34103596 0 0 Z" stroke-linecap="round" />
</g>
		<g transform="matrix(1 0 0 1 -76.65 -168.85)"  >
<path style="stroke: none; stroke-width: 1; stroke-dasharray: none; stroke-linecap: butt; stroke-dashoffset: 0; stroke-linejoin: miter; stroke-miterlimit: 4; fill: rgb(0,0,0); fill-rule: nonzero; opacity: 1;" vector-effect="non-scaling-stroke"  transform=" translate(-26.5, -6.5)" d="M 0 0 C 17.63639641 0.41693609 38.40707477 2.05530608 53 13 C 49.7 12.67 46.4 12.34 43 12 C 43 11.34 43 10.68 43 10 C 42.34 10 41.68 10 41 10 C 41 9.34 41 8.68 41 8 C 40.154375 8.061875 39.30875 8.12375 38.4375 8.1875 C 34.39189091 7.96683041 31.66901296 6.66773316 28 5 C 23.42072783 3.7435932 18.89540813 3.8861984 14.1875 3.9375 C 13.39923828 3.94201172 12.61097656 3.94652344 11.79882812 3.95117188 C 9.86585239 3.96288688 7.93291607 3.98082002 6 4 C 6.350625 4.763125 6.70125 5.52625 7.0625 6.3125 C 8 9 8 9 7 12 C 6.0165504 10.56542672 5.03839079 9.12722594 4.0625 7.6875 C 3.51722656 6.88699219 2.97195312 6.08648437 2.41015625 5.26171875 C 1 3 1 3 0 0 Z" stroke-linecap="round" />
</g>
		<g transform="matrix(1 0 0 1 -57.25 114.65)"  >
<path style="stroke: none; stroke-width: 1; stroke-dasharray: none; stroke-linecap: butt; stroke-dashoffset: 0; stroke-linejoin: miter; stroke-miterlimit: 4; fill: rgb(0,0,0); fill-rule: nonzero; opacity: 1;" vector-effect="non-scaling-stroke"  transform=" translate(13.1, -19)" d="M 0 0 C 1.2915851 2.58317021 0.8350736 3.40152132 0 6.125 C -2.29191808 12.6643259 -6.829222 16.92789372 -11.75 21.625 C -14.2280377 24.24070646 -15.47961121 26.75189668 -17 30 C -19.56326861 34.07792733 -22.76044221 35.88022111 -27 38 C -25.4239703 34.35383398 -23.16492802 31.73134154 -20.5625 28.75 C -14.43395654 21.58679685 -9.22012349 13.83655642 -4 6 C -3.60135742 5.4028418 -3.20271484 4.80568359 -2.79199219 4.19042969 C -1.86038632 2.79424776 -0.9300412 1.39722469 0 0 Z" stroke-linecap="round" />
</g>
		<g transform="matrix(1 0 0 1 243.35 -165.89)"  >
<path style="stroke: none; stroke-width: 1; stroke-dasharray: none; stroke-linecap: butt; stroke-dashoffset: 0; stroke-linejoin: miter; stroke-miterlimit: 4; fill: rgb(0,0,0); fill-rule: nonzero; opacity: 1;" vector-effect="non-scaling-stroke"  transform=" translate(-18.5, -9.46)" d="M 0 0 C 12.65108567 -0.4734294 24.91931717 1.23263529 37 5 C 33.1456276 6.37935662 29.57520307 5.74925211 25.625 5.1875 C 24.92761719 5.0942041 24.23023438 5.0009082 23.51171875 4.90478516 C 21.33987388 4.61170392 19.16988055 4.30726134 17 4 C 16.30229492 3.90251465 15.60458984 3.8050293 14.88574219 3.70458984 C 10.92175724 3.15031181 6.96005846 2.58163359 3 2 C 3.74056641 2.96099609 3.74056641 2.96099609 4.49609375 3.94140625 C 8.24712588 9.00567699 10.86132521 12.62095948 11 19 C 9.36759306 16.55138959 7.99792032 14.15530812 6.625 11.5625 C 4.75962174 8.14725257 2.80990612 5.70583553 0 3 C 0 2.01 0 1.02 0 0 Z" stroke-linecap="round" />
</g>
		<g transform="matrix(1 0 0 1 172.85 169.66)"  >
<path style="stroke: none; stroke-width: 1; stroke-dasharray: none; stroke-linecap: butt; stroke-dashoffset: 0; stroke-linejoin: miter; stroke-miterlimit: 4; fill: rgb(0,0,0); fill-rule: nonzero; opacity: 1;" vector-effect="non-scaling-stroke"  transform=" translate(-13, -5.01)" d="M 0 0 C 5.16071872 0.6727805 9.80694287 2.14848713 14.6875 3.875 C 15.44611328 4.13152344 16.20472656 4.38804687 16.98632812 4.65234375 C 17.71658203 4.90886719 18.44683594 5.16539062 19.19921875 5.4296875 C 19.85752686 5.65897949 20.51583496 5.88827148 21.1940918 6.12451172 C 23.23905866 7.11589352 24.48773015 8.32074 26 10 C 19.8894576 10.11269443 14.04829486 9.89604368 8 9 C 7.67 7.02 7.34 5.04 7 3 C 4.69 2.67 2.38 2.34 0 2 C 0 1.34 0 0.68 0 0 Z" stroke-linecap="round" />
</g>
		<g transform="matrix(1 0 0 1 -194.15 -169.47)"  >
<path style="stroke: none; stroke-width: 1; stroke-dasharray: none; stroke-linecap: butt; stroke-dashoffset: 0; stroke-linejoin: miter; stroke-miterlimit: 4; fill: rgb(0,0,0); fill-rule: nonzero; opacity: 1;" vector-effect="non-scaling-stroke"  transform=" translate(16, -4.88)" d="M 0 0 C -1.77945087 4.04420651 -4.39529673 7.46078487 -7 11 C -8.43088528 8.13822943 -7.59991697 6.06624227 -7 3 C -12.80183196 2.89493664 -18.2497181 3.14810639 -24 4 C -26.67360451 4.08044474 -29.32426172 4.04694278 -32 4 C -24.08619849 -0.45034956 -8.59368004 -2.86456001 0 0 Z" stroke-linecap="round" />
</g>
		<g transform="matrix(1 0 0 1 136.85 -62.07)"  >
<path style="stroke: none; stroke-width: 1; stroke-dasharray: none; stroke-linecap: butt; stroke-dashoffset: 0; stroke-linejoin: miter; stroke-miterlimit: 4; fill: rgb(0,0,0); fill-rule: nonzero; opacity: 1;" vector-effect="non-scaling-stroke"  transform=" translate(-21, -8.28)" d="M 0 0 C 4.19460008 0.68017874 7.86896273 2.02974465 11.8046875 3.6171875 C 12.4468924 3.87501007 13.08909729 4.13283264 13.75076294 4.39846802 C 15.79382846 5.21994189 17.83438415 6.04746248 19.875 6.875 C 21.23812866 7.42355641 22.60140859 7.97173708 23.96484375 8.51953125 C 30.00420466 10.95144503 36.02232532 13.42014136 42 16 C 38.35202603 17.21599132 37.20645737 16.3327695 33.8515625 14.76953125 C 31.29418674 13.70665567 28.73677743 13.33375334 26 13 C 26 12.34 26 11.68 26 11 C 25.01 11.33 24.02 11.66 23 12 C 23 11.34 23 10.68 23 10 C 22.443125 9.97421875 21.88625 9.9484375 21.3125 9.921875 C 15.31706452 9.47626831 11.23258464 7.94927498 6 5 C 6 4.34 6 3.68 6 3 C 4.02 2.34 2.04 1.68 0 1 C 0 0.67 0 0.34 0 0 Z" stroke-linecap="round" />
</g>
		<g transform="matrix(1 0 0 1 -306.73 -68.35)"  >
<path style="stroke: none; stroke-width: 1; stroke-dasharray: none; stroke-linecap: butt; stroke-dashoffset: 0; stroke-linejoin: miter; stroke-miterlimit: 4; fill: rgb(0,0,0); fill-rule: nonzero; opacity: 1;" vector-effect="non-scaling-stroke"  transform=" translate(5.58, -19)" d="M 0 0 C 1.10839844 3.75976562 1.10839844 3.75976562 0.1328125 5.921875 C -0.24101562 6.60765625 -0.61484375 7.2934375 -1 8 C -1.42663286 9.73813388 -1.80076859 11.48988665 -2.125 13.25 C -2.37636719 14.58804688 -2.37636719 14.58804688 -2.6328125 15.953125 C -2.75398438 16.62859375 -2.87515625 17.3040625 -3 18 C -3.66 18 -4.32 18 -5 18 C -5.12375 18.928125 -5.2475 19.85625 -5.375 20.8125 C -6 24 -6 24 -8 27 C -8.59690873 29.5948949 -9.01096166 32.19253164 -9.4375 34.8203125 C -9.623125 35.53960937 -9.80875 36.25890625 -10 37 C -10.99 37.495 -10.99 37.495 -12 38 C -10.94695283 24.57364863 -5.2214806 12.24701209 0 0 Z" stroke-linecap="round" />
</g>
		<g transform="matrix(1 0 0 1 -207.96 -106.85)"  >
<path style="stroke: none; stroke-width: 1; stroke-dasharray: none; stroke-linecap: butt; stroke-dashoffset: 0; stroke-linejoin: miter; stroke-miterlimit: 4; fill: rgb(0,0,0); fill-rule: nonzero; opacity: 1;" vector-effect="non-scaling-stroke"  transform=" translate(4.81, -21.5)" d="M 0 0 C 1.31258079 3.93774237 0.11198035 6.46270757 -1.125 10.25 C -4.48022524 21.00080532 -6.72797327 31.97884396 -9 43 C -9.33 43 -9.66 43 -10 43 C -10.69342823 34.86377549 -9.45268339 28.36089098 -6.85986328 20.75 C -5.16970799 15.75112003 -4.28142275 11.25322465 -4 6 C -3.01 5.67 -2.02 5.34 -1 5 C -0.67 3.35 -0.34 1.7 0 0 Z" stroke-linecap="round" />
</g>
		<g transform="matrix(1 0 0 1 -303.15 74.65)"  >
<path style="stroke: none; stroke-width: 1; stroke-dasharray: none; stroke-linecap: butt; stroke-dashoffset: 0; stroke-linejoin: miter; stroke-miterlimit: 4; fill: rgb(0,0,0); fill-rule: nonzero; opacity: 1;" vector-effect="non-scaling-stroke"  transform=" translate(-8, -20)" d="M 0 0 C 0.99 1.485 0.99 1.485 2 3 C 2.66 3.66 3.32 4.32 4 5 C 4.5625 6.98828125 4.5625 6.98828125 5 9.3125 C 5.70225591 12.71953844 6.43296021 15.86592041 8 19 C 8.66 19.33 9.32 19.66 10 20 C 13.14097301 26.4128199 14.68588364 32.99137942 16 40 C 9.53048286 32.08412555 5.97365354 21.36393657 2.5625 11.8125 C 2.30364014 11.09425049 2.04478027 10.37600098 1.77807617 9.63598633 C 0.58795062 6.20115743 0 3.67906355 0 0 Z" stroke-linecap="round" />
</g>
		<g transform="matrix(1 0 0 1 -54.15 -68.12)"  >
<path style="stroke: none; stroke-width: 1; stroke-dasharray: none; stroke-linecap: butt; stroke-dashoffset: 0; stroke-linejoin: miter; stroke-miterlimit: 4; fill: rgb(0,0,0); fill-rule: nonzero; opacity: 1;" vector-effect="non-scaling-stroke"  transform=" translate(21, -2.24)" d="M 0 0 C -1.70577342 0.65256456 -3.41476089 1.29673041 -5.125 1.9375 C -6.07632813 2.29714844 -7.02765625 2.65679687 -8.0078125 3.02734375 C -19.67358786 6.81948221 -30.79719517 5.5214924 -42 1 C -42 0.67 -42 0.34 -42 0 C -35.94910542 -0.36305367 -32.45820015 0.21283396 -27 3 C -19.62059051 3.61495079 -12.53959091 2.22276777 -5.5625 -0.1875 C -3 -1 -3 -1 0 0 Z" stroke-linecap="round" />
</g>
		<g transform="matrix(1 0 0 1 50.36 -54.85)"  >
<path style="stroke: none; stroke-width: 1; stroke-dasharray: none; stroke-linecap: butt; stroke-dashoffset: 0; stroke-linejoin: miter; stroke-miterlimit: 4; fill: rgb(0,0,0); fill-rule: nonzero; opacity: 1;" vector-effect="non-scaling-stroke"  transform=" translate(-5.51, -16.5)" d="M 0 0 C 3.02189223 3.15327885 3.24456994 5.74095733 3.62890625 9.9921875 C 4.21815107 13.1803121 6.14785079 15.38520112 8 18 C 10.49350068 23.10224719 11.3533334 27.34666559 11 33 C 7.96992812 29.49054362 6.49949194 25.54847399 4.9375 21.25 C 4.68162109 20.57195312 4.42574219 19.89390625 4.16210938 19.1953125 C 1.87758418 13.0171107 -0.41683736 6.66939782 0 0 Z" stroke-linecap="round" />
</g>
		<g transform="matrix(1 0 0 1 -251.65 -147.85)"  >
<path style="stroke: none; stroke-width: 1; stroke-dasharray: none; stroke-linecap: butt; stroke-dashoffset: 0; stroke-linejoin: miter; stroke-miterlimit: 4; fill: rgb(0,0,0); fill-rule: nonzero; opacity: 1;" vector-effect="non-scaling-stroke"  transform=" translate(11.5, -10.5)" d="M 0 0 C 0.66 0.33 1.32 0.66 2 1 C 1.236875 1.598125 0.47375 2.19625 -0.3125 2.8125 C -2.91570291 4.8280426 -2.91570291 4.8280426 -4.625 6.75 C -6 8 -6 8 -9 8 C -9 8.99 -9 9.98 -9 11 C -10.609375 12.53515625 -10.609375 12.53515625 -12.75 14.0625 C -13.44609375 14.56910156 -14.1421875 15.07570313 -14.859375 15.59765625 C -16.86223695 16.90975012 -18.83931001 17.97494825 -21 19 C -22.11375 19.556875 -22.11375 19.556875 -23.25 20.125 C -23.8275 20.41375 -24.405 20.7025 -25 21 C -18.30810826 12.20494228 -9.17286479 6.0093316 0 0 Z" stroke-linecap="round" />
</g>
		<g transform="matrix(1 0 0 1 169.35 60.65)"  >
<path style="stroke: none; stroke-width: 1; stroke-dasharray: none; stroke-linecap: butt; stroke-dashoffset: 0; stroke-linejoin: miter; stroke-miterlimit: 4; fill: rgb(0,0,0); fill-rule: nonzero; opacity: 1;" vector-effect="non-scaling-stroke"  transform=" translate(-14.5, -6)" d="M 0 0 C 4.96916636 0.51405169 9.29026351 1.23384882 14 3 C 14 3.66 14 4.32 14 5 C 15.98 5 17.96 5 20 5 C 20 5.66 20 6.32 20 7 C 22.475 7.495 22.475 7.495 25 8 C 25 8.66 25 9.32 25 10 C 26.32 10.66 27.64 11.32 29 12 C 24.77968545 11.43093823 21.27086411 10.44043969 17.3828125 8.71484375 C 16.36445313 8.26689453 15.34609375 7.81894531 14.296875 7.35742188 C 13.25015625 6.88884766 12.2034375 6.42027344 11.125 5.9375 C 10.05507813 5.46505859 8.98515625 4.99261719 7.8828125 4.50585938 C 5.2524362 3.34332699 2.62502483 2.17455398 0 1 C 0 0.67 0 0.34 0 0 Z" stroke-linecap="round" />
</g>
		<g transform="matrix(1 0 0 1 -217.21 50.65)"  >
<path style="stroke: none; stroke-width: 1; stroke-dasharray: none; stroke-linecap: butt; stroke-dashoffset: 0; stroke-linejoin: miter; stroke-miterlimit: 4; fill: rgb(0,0,0); fill-rule: nonzero; opacity: 1;" vector-effect="non-scaling-stroke"  transform=" translate(-1.94, -20)" d="M 0 0 C 0.33 0 0.66 0 1 0 C 2.14665686 13.32592196 3.25368637 26.64491398 4 40 C 3.34 40 2.68 40 2 40 C -0.42291291 26.69561212 -0.20801332 13.48086352 0 0 Z" stroke-linecap="round" />
</g>
		<g transform="matrix(1 0 0 1 -278.15 -122.35)"  >
<path style="stroke: none; stroke-width: 1; stroke-dasharray: none; stroke-linecap: butt; stroke-dashoffset: 0; stroke-linejoin: miter; stroke-miterlimit: 4; fill: rgb(0,0,0); fill-rule: nonzero; opacity: 1;" vector-effect="non-scaling-stroke"  transform=" translate(9, -12)" d="M 0 0 C 0 0.99 0 1.98 0 3 C -0.6496875 3.61875 -0.6496875 3.61875 -1.3125 4.25 C -3.2811556 6.06292329 -3.2811556 6.06292329 -4.3125 9.4375 C -6.28751012 13.60696582 -8.23118756 14.51418754 -12 17 C -12.70164642 18.98799818 -13.37372872 20.98698517 -14 23 C -16.125 23.875 -16.125 23.875 -18 24 C -16.45696541 19.23554231 -13.77994067 15.84398999 -10.6875 12 C -9.9769043 11.09507813 -9.9769043 11.09507813 -9.25195312 10.171875 C -6.36566313 6.53933493 -3.3439428 3.21603242 0 0 Z" stroke-linecap="round" />
</g>
		<g transform="matrix(1 0 0 1 203.35 74.36)"  >
<path style="stroke: none; stroke-width: 1; stroke-dasharray: none; stroke-linecap: butt; stroke-dashoffset: 0; stroke-linejoin: miter; stroke-miterlimit: 4; fill: rgb(0,0,0); fill-rule: nonzero; opacity: 1;" vector-effect="non-scaling-stroke"  transform=" translate(-14.5, -5.72)" d="M 0 0 C 6.08973991 -0.67663777 10.09730292 1.13708565 15.546875 3.80859375 C 18.04289283 5.08651846 18.04289283 5.08651846 21 6 C 21.33 6.66 21.66 7.32 22 8 C 24.30965848 9.05352843 26.6429774 10.05719096 29 11 C 24.91395246 12.36201585 23.44482219 11.13221606 19.5625 9.375 C 18.31148761 8.81705834 17.06017951 8.25977929 15.80859375 7.703125 C 14.86089111 7.27676758 14.86089111 7.27676758 13.89404297 6.84179688 C 10.99206124 5.55202722 8.05925241 4.33917341 5.125 3.125 C 4.13757813 2.71507812 3.15015625 2.30515625 2.1328125 1.8828125 C 1.42898438 1.59148437 0.72515625 1.30015625 0 1 C 0 0.67 0 0.34 0 0 Z" stroke-linecap="round" />
</g>
		<g transform="matrix(1 0 0 1 215.85 -29.35)"  >
<path style="stroke: none; stroke-width: 1; stroke-dasharray: none; stroke-linecap: butt; stroke-dashoffset: 0; stroke-linejoin: miter; stroke-miterlimit: 4; fill: rgb(0,0,0); fill-rule: nonzero; opacity: 1;" vector-effect="non-scaling-stroke"  transform=" translate(-16, -7)" d="M 0 0 C 5.26766375 0.93687418 9.93113845 2.81830694 14.875 4.8125 C 16.18404297 5.32780273 16.18404297 5.32780273 17.51953125 5.85351562 C 22.60907052 7.89315806 27.31065841 10.1570068 32 13 C 31.01 13.495 31.01 13.495 30 14 C 27.9911515 13.01789629 25.99212671 12.01559401 24 11 C 21.26427415 10.30092586 21.26427415 10.30092586 19 10 C 19 9.34 19 8.68 19 8 C 17.85660156 7.74605469 16.71320312 7.49210938 15.53515625 7.23046875 C 14.04411159 6.88349609 12.55323458 6.53580247 11.0625 6.1875 C 10.30775391 6.02185547 9.55300781 5.85621094 8.77539062 5.68554688 C 6.82429587 5.22183377 4.90744213 4.6192456 3 4 C 2.67 3.01 2.34 2.02 2 1 C 1.34 0.67 0.68 0.34 0 0 Z" stroke-linecap="round" />
</g>
		<g transform="matrix(1 0 0 1 -222.15 -165.24)"  >
<path style="stroke: none; stroke-width: 1; stroke-dasharray: none; stroke-linecap: butt; stroke-dashoffset: 0; stroke-linejoin: miter; stroke-miterlimit: 4; fill: rgb(0,0,0); fill-rule: nonzero; opacity: 1;" vector-effect="non-scaling-stroke"  transform=" translate(12, -4.11)" d="M 0 0 C -1.65 0.33 -3.3 0.66 -5 1 C -5.33 1.99 -5.66 2.98 -6 4 C -9.75907641 5.62323754 -12.92086213 6.23994929 -17 6 C -17 6.99 -17 7.98 -17 9 C -19.31 9 -21.62 9 -24 9 C -22.31025688 5.62051375 -18.46968328 4.84808382 -15.125 3.4375 C -14.39152344 3.12103516 -13.65804687 2.80457031 -12.90234375 2.47851562 C -4.13373343 -1.28288279 -4.13373343 -1.28288279 0 0 Z" stroke-linecap="round" />
</g>
		<g transform="matrix(1 0 0 1 297.85 -147.35)"  >
<path style="stroke: none; stroke-width: 1; stroke-dasharray: none; stroke-linecap: butt; stroke-dashoffset: 0; stroke-linejoin: miter; stroke-miterlimit: 4; fill: rgb(0,0,0); fill-rule: nonzero; opacity: 1;" vector-effect="non-scaling-stroke"  transform=" translate(-13, -12)" d="M 0 0 C 10.36881178 3.64658034 19.64015763 13.20902522 26 22 C 25.67 22.66 25.34 23.32 25 24 C 24.18015625 23.09636719 23.3603125 22.19273438 22.515625 21.26171875 C 21.42726218 20.07014912 20.33871057 18.87875191 19.25 17.6875 C 18.71117187 17.09259766 18.17234375 16.49769531 17.6171875 15.88476562 C 12.5788133 10.35656957 12.5788133 10.35656957 6 7 C 5.67 6.34 5.34 5.68 5 5 C 2.97536745 4.34786708 2.97536745 4.34786708 1 4 C 0.67 2.68 0.34 1.36 0 0 Z" stroke-linecap="round" />
</g>
		<g transform="matrix(1 0 0 1 237.42 -144.85)"  >
<path style="stroke: none; stroke-width: 1; stroke-dasharray: none; stroke-linecap: butt; stroke-dashoffset: 0; stroke-linejoin: miter; stroke-miterlimit: 4; fill: rgb(0,0,0); fill-rule: nonzero; opacity: 1;" vector-effect="non-scaling-stroke"  transform=" translate(-1.57, -11.5)" d="M 0 0 C 0.66 0 1.32 0 2 0 C 3.16171778 2.32343556 3.12903969 3.69633316 3.1328125 6.28125 C 3.13410156 7.12300781 3.13539063 7.96476562 3.13671875 8.83203125 C 3.13285156 9.71246094 3.12898437 10.59289063 3.125 11.5 C 3.12886719 12.38042969 3.13273438 13.26085938 3.13671875 14.16796875 C 3.13542969 15.00972656 3.13414062 15.85148437 3.1328125 16.71875 C 3.13112061 17.87793945 3.13112061 17.87793945 3.12939453 19.06054688 C 3 21 3 21 2 23 C 1.34 23 0.68 23 0 23 C 0 15.41 0 7.82 0 0 Z" stroke-linecap="round" />
</g>
		<g transform="matrix(1 0 0 1 -48.64 105.15)"  >
<path style="stroke: none; stroke-width: 1; stroke-dasharray: none; stroke-linecap: butt; stroke-dashoffset: 0; stroke-linejoin: miter; stroke-miterlimit: 4; fill: rgb(0,0,0); fill-rule: nonzero; opacity: 1;" vector-effect="non-scaling-stroke"  transform=" translate(4.49, -9.5)" d="M 0 0 C 1.2915851 2.58317021 0.8350736 3.40152132 0 6.125 C -1.83694173 11.44609411 -5.07853492 15.05704744 -9 19 C -10 17 -10 17 -9.3203125 14.76953125 C -7.7710982 11.519848 -5.90166884 8.66212684 -3.875 5.6875 C -3.15054687 4.61886719 -2.42609375 3.55023438 -1.6796875 2.44921875 C -0.84824219 1.23685547 -0.84824219 1.23685547 0 0 Z" stroke-linecap="round" />
</g>
		<g transform="matrix(1 0 0 1 -37.27 84.15)"  >
<path style="stroke: none; stroke-width: 1; stroke-dasharray: none; stroke-linecap: butt; stroke-dashoffset: 0; stroke-linejoin: miter; stroke-miterlimit: 4; fill: rgb(0,0,0); fill-rule: nonzero; opacity: 1;" vector-effect="non-scaling-stroke"  transform=" translate(5.12, -11.5)" d="M 0 0 C 1.02444688 3.17578534 1.12311432 3.73698304 -0.375 6.9375 C -0.91125 7.948125 -1.4475 8.95875 -2 10 C -2.34820041 11.66362417 -2.68404492 13.32995171 -3 15 C -3.99 16.485 -3.99 16.485 -5 18 C -5.99 18 -6.98 18 -8 18 C -8.99 20.475 -8.99 20.475 -10 23 C -10.33 22.34 -10.66 21.68 -11 21 C -10.10375977 18.84521484 -10.10375977 18.84521484 -8.69140625 16.2109375 C -8.19189453 15.26992188 -7.69238281 14.32890625 -7.17773438 13.359375 C -6.64470703 12.37453125 -6.11167969 11.3896875 -5.5625 10.375 C -5.03333984 9.38242187 -4.50417969 8.38984375 -3.95898438 7.3671875 C -2.6463946 4.90755982 -1.32648654 2.45215293 0 0 Z" stroke-linecap="round" />
</g>
		<g transform="matrix(1 0 0 1 268.35 -66.12)"  >
<path style="stroke: none; stroke-width: 1; stroke-dasharray: none; stroke-linecap: butt; stroke-dashoffset: 0; stroke-linejoin: miter; stroke-miterlimit: 4; fill: rgb(0,0,0); fill-rule: nonzero; opacity: 1;" vector-effect="non-scaling-stroke"  transform=" translate(-2.83, -1.22)" d="M 0 0 C 3.19323048 1.33944232 6.13058707 1.41003262 9.578125 1.6015625 C 10.84140625 1.67632812 12.1046875 1.75109375 13.40625 1.828125 C 14.37046875 1.87710938 15.3346875 1.92609375 16.328125 1.9765625 C 10.1304721 5.419703 4.28256216 4.37061119 -2.30322266 2.54150391 C -5.10427329 1.72208151 -7.89123266 0.86257087 -10.671875 -0.0234375 C -10.671875 -0.3534375 -10.671875 -0.6834375 -10.671875 -1.0234375 C -3.597875 -2.2024375 -3.597875 -2.2024375 0 0 Z" stroke-linecap="round" />
</g>
		<g transform="matrix(1 0 0 1 136.35 153.01)"  >
<path style="stroke: none; stroke-width: 1; stroke-dasharray: none; stroke-linecap: butt; stroke-dashoffset: 0; stroke-linejoin: miter; stroke-miterlimit: 4; fill: rgb(0,0,0); fill-rule: nonzero; opacity: 1;" vector-effect="non-scaling-stroke"  transform=" translate(-10.5, -5.36)" d="M 0 0 C 5.00113594 1.48008696 9.32915597 3.6318336 13.875 6.125 C 14.56335938 6.49753906 15.25171875 6.87007813 15.9609375 7.25390625 C 17.64294798 8.16499526 19.32180436 9.08190315 21 10 C 17.71023192 11.09658936 16.28696233 10.79953138 13 10 C 13 9.34 13 8.68 13 8 C 10.69 7.67 8.38 7.34 6 7 C 5.67 5.68 5.34 4.36 5 3 C 3.35 2.67 1.7 2.34 0 2 C 0 1.34 0 0.68 0 0 Z" stroke-linecap="round" />
</g>
		<g transform="matrix(1 0 0 1 -218.18 -48.85)"  >
<path style="stroke: none; stroke-width: 1; stroke-dasharray: none; stroke-linecap: butt; stroke-dashoffset: 0; stroke-linejoin: miter; stroke-miterlimit: 4; fill: rgb(0,0,0); fill-rule: nonzero; opacity: 1;" vector-effect="non-scaling-stroke"  transform=" translate(1.04, -15.5)" d="M 0 0 C 0.33 0 0.66 0 1 0 C 0.85982174 2.97953359 0.71313658 5.95849304 0.5625 8.9375 C 0.52318359 9.78763672 0.48386719 10.63777344 0.44335938 11.51367188 C 0.38051758 12.72700195 0.38051758 12.72700195 0.31640625 13.96484375 C 0.27974854 14.7137085 0.24309082 15.46257324 0.20532227 16.23413086 C 0 18 0 18 -1 19 C -1.23427778 21.01594582 -1.41336124 23.038474 -1.5625 25.0625 C -1.64628906 26.16722656 -1.73007813 27.27195313 -1.81640625 28.41015625 C -1.87699219 29.26480469 -1.93757813 30.11945313 -2 31 C -2.33 31 -2.66 31 -3 31 C -3.25975688 20.82618876 -2.88177509 11.02697678 -1 1 C -0.67 0.67 -0.34 0.34 0 0 Z" stroke-linecap="round" />
</g>
		<g transform="matrix(1 0 0 1 317.38 -114.35)"  >
<path style="stroke: none; stroke-width: 1; stroke-dasharray: none; stroke-linecap: butt; stroke-dashoffset: 0; stroke-linejoin: miter; stroke-miterlimit: 4; fill: rgb(0,0,0); fill-rule: nonzero; opacity: 1;" vector-effect="non-scaling-stroke"  transform=" translate(-2.53, -14)" d="M 0 0 C 5.08221565 7.62332347 5.76534791 16.64256464 4.5 25.5 C 4.2525 26.7375 4.2525 26.7375 4 28 C 3.67 28 3.34 28 3 28 C 2.67 21.4 2.34 14.8 2 8 C 1.34 8 0.68 8 0 8 C 0 5.36 0 2.72 0 0 Z" stroke-linecap="round" />
</g>
		<g transform="matrix(1 0 0 1 -25.65 -79.85)"  >
<path style="stroke: none; stroke-width: 1; stroke-dasharray: none; stroke-linecap: butt; stroke-dashoffset: 0; stroke-linejoin: miter; stroke-miterlimit: 4; fill: rgb(0,0,0); fill-rule: nonzero; opacity: 1;" vector-effect="non-scaling-stroke"  transform=" translate(4.5, -8.5)" d="M 0 0 C 0.99 0.66 1.98 1.32 3 2 C 1.21169455 8.55711999 -4.53824738 13.28600822 -10 17 C -10.66 16.67 -11.32 16.34 -12 16 C -10.55424733 12.6265771 -8.7950914 10.38404854 -6 8 C -3.75 7.25 -3.75 7.25 -2 7 C -1.34 4.69 -0.68 2.38 0 0 Z" stroke-linecap="round" />
</g>
		<g transform="matrix(1 0 0 1 -84.15 -79.35)"  >
<path style="stroke: none; stroke-width: 1; stroke-dasharray: none; stroke-linecap: butt; stroke-dashoffset: 0; stroke-linejoin: miter; stroke-miterlimit: 4; fill: rgb(0,0,0); fill-rule: nonzero; opacity: 1;" vector-effect="non-scaling-stroke"  transform=" translate(-9, -9)" d="M 0 0 C 0.66 0 1.32 0 2 0 C 3.01866229 1.65532623 4.01810813 3.32260138 5 5 C 5.66 5.33 6.32 5.66 7 6 C 7.433125 6.825 7.86625 7.65 8.3125 8.5 C 8.869375 9.325 9.42625 10.15 10 11 C 10.825 11.144375 11.65 11.28875 12.5 11.4375 C 13.325 11.623125 14.15 11.80875 15 12 C 16.8125 15.0625 16.8125 15.0625 18 18 C 10.1582612 15.79451096 4.7877913 9.37524965 0.8125 2.6015625 C 0 1 0 1 0 0 Z" stroke-linecap="round" />
</g>
		<g transform="matrix(1 0 0 1 -87.65 150.15)"  >
<path style="stroke: none; stroke-width: 1; stroke-dasharray: none; stroke-linecap: butt; stroke-dashoffset: 0; stroke-linejoin: miter; stroke-miterlimit: 4; fill: rgb(0,0,0); fill-rule: nonzero; opacity: 1;" vector-effect="non-scaling-stroke"  transform=" translate(6.5, -7.5)" d="M 0 0 C 0.33 0.66 0.66 1.32 1 2 C -2.625 7.875 -2.625 7.875 -6 9 C -6.268125 9.639375 -6.53625 10.27875 -6.8125 10.9375 C -8 13 -8 13 -11.125 14.25 C -12.07375 14.4975 -13.0225 14.745 -14 15 C -11.13061964 11.46923764 -8.30369115 8.11220938 -4.75 5.25 C -1.86340001 3.11220714 -1.86340001 3.11220714 0 0 Z" stroke-linecap="round" />
</g>
		<g transform="matrix(1 0 0 1 -27.15 64.65)"  >
<path style="stroke: none; stroke-width: 1; stroke-dasharray: none; stroke-linecap: butt; stroke-dashoffset: 0; stroke-linejoin: miter; stroke-miterlimit: 4; fill: rgb(0,0,0); fill-rule: nonzero; opacity: 1;" vector-effect="non-scaling-stroke"  transform=" translate(4, -8)" d="M 0 0 C -0.33 3.3 -0.66 6.6 -1 10 C -1.99 10.33 -2.98 10.66 -4 11 C -5.38576923 12.62332967 -6.72641268 14.28724465 -8 16 C -7.37099631 12.3945768 -6.41162002 9.15080065 -5.0625 5.75 C -4.72347656 4.87859375 -4.38445312 4.0071875 -4.03515625 3.109375 C -3.03021304 1.06156619 -2.45371952 0 0 0 Z" stroke-linecap="round" />
</g>
		<g transform="matrix(1 0 0 1 294.35 -70.73)"  >
<path style="stroke: none; stroke-width: 1; stroke-dasharray: none; stroke-linecap: butt; stroke-dashoffset: 0; stroke-linejoin: miter; stroke-miterlimit: 4; fill: rgb(0,0,0); fill-rule: nonzero; opacity: 1;" vector-effect="non-scaling-stroke"  transform=" translate(10.5, -4.63)" d="M 0 0 C -5.43555897 4.55493769 -11.05626942 8.21165021 -18 10 C -18.99 9.67 -19.98 9.34 -21 9 C -18.03653214 6.52813545 -15.45958311 5.33751639 -11.75 4.3125 C -10.85796875 4.06113281 -9.9659375 3.80976562 -9.046875 3.55078125 C -8.37140625 3.36902344 -7.6959375 3.18726562 -7 3 C -7.33 2.34 -7.66 1.68 -8 1 C -2.25 -1.125 -2.25 -1.125 0 0 Z" stroke-linecap="round" />
</g>
		<g transform="matrix(1 0 0 1 311.13 -87.85)"  >
<path style="stroke: none; stroke-width: 1; stroke-dasharray: none; stroke-linecap: butt; stroke-dashoffset: 0; stroke-linejoin: miter; stroke-miterlimit: 4; fill: rgb(0,0,0); fill-rule: nonzero; opacity: 1;" vector-effect="non-scaling-stroke"  transform=" translate(5.72, -11.5)" d="M 0 0 C 1.26363594 3.79090783 0.19307226 5.29159538 -1.51171875 8.75585938 C -1.87910156 9.47580078 -2.24648438 10.19574219 -2.625 10.9375 C -2.96917969 11.65357422 -3.31335938 12.36964844 -3.66796875 13.10742188 C -5.84343408 17.43828367 -7.88115552 20.23242555 -12 23 C -10.97648478 20.79550567 -9.9690037 18.96156459 -8.4375 17.0625 C -6.79371058 14.70401953 -6.39201607 12.82251571 -6 10 C -5.34 10 -4.68 10 -4 10 C -4 8.68 -4 7.36 -4 6 C -3.34 6 -2.68 6 -2 6 C -1.34 4.02 -0.68 2.04 0 0 Z" stroke-linecap="round" />
</g>
		<g transform="matrix(1 0 0 1 104.35 -75.07)"  >
<path style="stroke: none; stroke-width: 1; stroke-dasharray: none; stroke-linecap: butt; stroke-dashoffset: 0; stroke-linejoin: miter; stroke-miterlimit: 4; fill: rgb(0,0,0); fill-rule: nonzero; opacity: 1;" vector-effect="non-scaling-stroke"  transform=" translate(-11.5, -4.28)" d="M 0 0 C 5.40508043 0.61303628 9.92439045 2.44380693 14.875 4.5625 C 16.050625 5.0565332 16.050625 5.0565332 17.25 5.56054688 C 19.16908756 6.36796786 21.0848865 7.18319769 23 8 C 18.87642012 9.37452663 15.95922774 7.94943917 12 6.625 C 11.27554687 6.39039062 10.55109375 6.15578125 9.8046875 5.9140625 C 6.86428068 4.95924405 3.93288693 3.97762898 1 3 C 0.67 2.01 0.34 1.02 0 0 Z" stroke-linecap="round" />
</g>
		<g transform="matrix(1 0 0 1 -92.47 -140.85)"  >
<path style="stroke: none; stroke-width: 1; stroke-dasharray: none; stroke-linecap: butt; stroke-dashoffset: 0; stroke-linejoin: miter; stroke-miterlimit: 4; fill: rgb(0,0,0); fill-rule: nonzero; opacity: 1;" vector-effect="non-scaling-stroke"  transform=" translate(0.32, -15.5)" d="M 0 0 C 2.81611171 4.22416757 2.3303368 7.78423625 2.3125 12.75 C 2.32861328 13.63171875 2.34472656 14.5134375 2.36132812 15.421875 C 2.36550832 21.04005597 1.71959939 25.05046144 -1 30 C -1.66 30.33 -2.32 30.66 -3 31 C -2.49322009 28.21271051 -1.87475314 25.62805479 -0.96875 22.9375 C 0.36154686 18.33230037 0.21905698 13.81961268 0.125 9.0625 C 0.11146484 7.75055664 0.11146484 7.75055664 0.09765625 6.41210938 C 0.0742957 4.27461936 0.03843247 2.13727214 0 0 Z" stroke-linecap="round" />
</g>
		<g transform="matrix(1 0 0 1 233.85 -93.85)"  >
<path style="stroke: none; stroke-width: 1; stroke-dasharray: none; stroke-linecap: butt; stroke-dashoffset: 0; stroke-linejoin: miter; stroke-miterlimit: 4; fill: rgb(0,0,0); fill-rule: nonzero; opacity: 1;" vector-effect="non-scaling-stroke"  transform=" translate(-3, -9.5)" d="M 0 0 C 4.14918639 6.22377959 5.51574723 11.63601816 6 19 C 2.445479 15.93018641 1.24407257 12.70620542 0.5859375 8.10546875 C 0.51632812 7.14253906 0.44671875 6.17960937 0.375 5.1875 C 0.30023437 4.21167969 0.22546875 3.23585938 0.1484375 2.23046875 C 0.09945312 1.49441406 0.05046875 0.75835937 0 0 Z" stroke-linecap="round" />
</g>
		<g transform="matrix(1 0 0 1 -108.65 169.65)"  >
<path style="stroke: none; stroke-width: 1; stroke-dasharray: none; stroke-linecap: butt; stroke-dashoffset: 0; stroke-linejoin: miter; stroke-miterlimit: 4; fill: rgb(0,0,0); fill-rule: nonzero; opacity: 1;" vector-effect="non-scaling-stroke"  transform=" translate(3.5, -5)" d="M 0 0 C 0.66 0.33 1.32 0.66 2 1 C 0.515 2.485 0.515 2.485 -1 4 C -0.67 4.66 -0.34 5.32 0 6 C -0.66 6 -1.32 6 -2 6 C -2 7.32 -2 8.64 -2 10 C -4.31 10 -6.62 10 -9 10 C -6.68116787 5.49115974 -3.93548431 3.06093224 0 0 Z" stroke-linecap="round" />
</g>
		<g transform="matrix(1 0 0 1 85.35 117.65)"  >
<path style="stroke: none; stroke-width: 1; stroke-dasharray: none; stroke-linecap: butt; stroke-dashoffset: 0; stroke-linejoin: miter; stroke-miterlimit: 4; fill: rgb(0,0,0); fill-rule: nonzero; opacity: 1;" vector-effect="non-scaling-stroke"  transform=" translate(-7.5, -6)" d="M 0 0 C 3.89917968 1.61537444 6.71293772 4.27924873 9.75 7.125 C 10.25660156 7.59292969 10.76320313 8.06085938 11.28515625 8.54296875 C 12.52719141 9.69126541 13.76411494 10.84508672 15 12 C 11.88772805 12 9.05847848 11.54372951 6 11 C 5.7525 10.113125 5.505 9.22625 5.25 8.3125 C 3.96065232 4.89572865 2.40019871 2.7202252 0 0 Z" stroke-linecap="round" />
</g>
		<g transform="matrix(1 0 0 1 168.85 -48.95)"  >
<path style="stroke: none; stroke-width: 1; stroke-dasharray: none; stroke-linecap: butt; stroke-dashoffset: 0; stroke-linejoin: miter; stroke-miterlimit: 4; fill: rgb(0,0,0); fill-rule: nonzero; opacity: 1;" vector-effect="non-scaling-stroke"  transform=" translate(-11, -4.4)" d="M 0 0 C 4.93321834 0.70192085 9.25974682 2.63530775 13.8125 4.5625 C 14.60076172 4.89185547 15.38902344 5.22121094 16.20117188 5.56054688 C 18.13583796 6.36958906 20.06815753 7.18423852 22 8 C 19 9 19 9 17.0546875 8.29296875 C 16.33539063 7.92816406 15.61609375 7.56335938 14.875 7.1875 C 10.85875359 5.26496893 7.13911682 4.26802326 2.75 3.58984375 C 1.88375 3.29787109 1.88375 3.29787109 1 3 C 0.67 2.01 0.34 1.02 0 0 Z" stroke-linecap="round" />
</g>
		<g transform="matrix(1 0 0 1 109.85 137.15)"  >
<path style="stroke: none; stroke-width: 1; stroke-dasharray: none; stroke-linecap: butt; stroke-dashoffset: 0; stroke-linejoin: miter; stroke-miterlimit: 4; fill: rgb(0,0,0); fill-rule: nonzero; opacity: 1;" vector-effect="non-scaling-stroke"  transform=" translate(-8, -5.5)" d="M 0 0 C 5.53192638 3.06021459 10.77383293 6.4447843 16 10 C 14.08984375 10.58984375 14.08984375 10.58984375 12 11 C 11 10 10 9 9 8 C 6.37429296 7.74930087 6.37429296 7.74930087 4 8 C 3.71125 7.195625 3.4225 6.39125 3.125 5.5625 C 2.26737432 2.8673532 2.26737432 2.8673532 0 2 C 0 1.34 0 0.68 0 0 Z" stroke-linecap="round" />
</g>
		<g transform="matrix(1 0 0 1 -186.15 170.15)"  >
<path style="stroke: none; stroke-width: 1; stroke-dasharray: none; stroke-linecap: butt; stroke-dashoffset: 0; stroke-linejoin: miter; stroke-miterlimit: 4; fill: rgb(0,0,0); fill-rule: nonzero; opacity: 1;" vector-effect="non-scaling-stroke"  transform=" translate(2, -4.5)" d="M 0 0 C 2.5 2.25 2.5 2.25 5 5 C 5 6.32 5 7.64 5 9 C -1.93 8.505 -1.93 8.505 -9 8 C -9 7.67 -9 7.34 -9 7 C -5.37 7 -1.74 7 2 7 C 1.34 4.69 0.68 2.38 0 0 Z" stroke-linecap="round" />
</g>
		<g transform="matrix(1 0 0 1 -13.56 -105.35)"  >
<path style="stroke: none; stroke-width: 1; stroke-dasharray: none; stroke-linecap: butt; stroke-dashoffset: 0; stroke-linejoin: miter; stroke-miterlimit: 4; fill: rgb(0,0,0); fill-rule: nonzero; opacity: 1;" vector-effect="non-scaling-stroke"  transform=" translate(0.41, -14)" d="M 0 0 C 0.33 0 0.66 0 1 0 C 1.0582462 3.72910066 1.09367917 7.45808364 1.125 11.1875 C 1.15013672 12.77014648 1.15013672 12.77014648 1.17578125 14.38476562 C 1.18222656 15.40634766 1.18867188 16.42792969 1.1953125 17.48046875 C 1.20578613 18.41785889 1.21625977 19.35524902 1.22705078 20.32104492 C 0.98166713 23.21630812 0.20521619 25.37062697 -1 28 C -1.33 28 -1.66 28 -2 28 C -2.125 22.25 -2.125 22.25 -1 20 C -0.84876169 18.4804236 -0.75118307 16.95527498 -0.68359375 15.4296875 C -0.64169922 14.53378906 -0.59980469 13.63789062 -0.55664062 12.71484375 C -0.49766602 11.30912109 -0.49766602 11.30912109 -0.4375 9.875 C -0.39431641 8.93011719 -0.35113281 7.98523438 -0.30664062 7.01171875 C -0.20040928 4.67462908 -0.09836824 2.3374317 0 0 Z" stroke-linecap="round" />
</g>
		<g transform="matrix(1 0 0 1 226.35 84.15)"  >
<path style="stroke: none; stroke-width: 1; stroke-dasharray: none; stroke-linecap: butt; stroke-dashoffset: 0; stroke-linejoin: miter; stroke-miterlimit: 4; fill: rgb(0,0,0); fill-rule: nonzero; opacity: 1;" vector-effect="non-scaling-stroke"  transform=" translate(-8.5, -3.5)" d="M 0 0 C 0.845625 0.144375 1.69125 0.28875 2.5625 0.4375 C 6.03593149 1.0058797 9.51445662 1.51202393 13 2 C 13.33 2.99 13.66 3.98 14 5 C 14.99 5.33 15.98 5.66 17 6 C 16.01 6.495 16.01 6.495 15 7 C 12.40267775 6.09239638 9.90549025 5.12932108 7.375 4.0625 C 6.31539062 3.62647461 6.31539062 3.62647461 5.234375 3.18164062 C 3.48672427 2.46132512 1.74298085 1.73154306 0 1 C 0 0.67 0 0.34 0 0 Z" stroke-linecap="round" />
</g>
		<g transform="matrix(1 0 0 1 300.85 113.91)"  >
<path style="stroke: none; stroke-width: 1; stroke-dasharray: none; stroke-linecap: butt; stroke-dashoffset: 0; stroke-linejoin: miter; stroke-miterlimit: 4; fill: rgb(0,0,0); fill-rule: nonzero; opacity: 1;" vector-effect="non-scaling-stroke"  transform=" translate(-9, -3.26)" d="M 0 0 C 4.6875 0.78125 4.6875 0.78125 9.375 1.5625 C 10.674375 1.7790625 10.674375 1.7790625 12 2 C 12 2.66 12 3.32 12 4 C 13.98 4.66 15.96 5.32 18 6 C 13.82356045 7.39214652 11.16562207 5.70664266 7.3125 4.0625 C 6.61060547 3.77181641 5.90871094 3.48113281 5.18554688 3.18164062 C 3.45349225 2.46289687 1.72626219 1.73254669 0 1 C 0 0.67 0 0.34 0 0 Z" stroke-linecap="round" />
</g>
		<g transform="matrix(1 0 0 1 176.85 63.15)"  >
<path style="stroke: none; stroke-width: 1; stroke-dasharray: none; stroke-linecap: butt; stroke-dashoffset: 0; stroke-linejoin: miter; stroke-miterlimit: 4; fill: rgb(0,0,0); fill-rule: nonzero; opacity: 1;" vector-effect="non-scaling-stroke"  transform=" translate(-7, -3.5)" d="M 0 0 C 1.65 0 3.3 0 5 0 C 5 0.66 5 1.32 5 2 C 6.65 2.33 8.3 2.66 10 3 C 10 3.66 10 4.32 10 5 C 11.32 5.66 12.64 6.32 14 7 C 8.39958947 6.57996921 4.411509 4.31423011 0 1 C 0 0.67 0 0.34 0 0 Z" stroke-linecap="round" />
</g>
		<g transform="matrix(1 0 0 1 -214.74 -75.35)"  >
<path style="stroke: none; stroke-width: 1; stroke-dasharray: none; stroke-linecap: butt; stroke-dashoffset: 0; stroke-linejoin: miter; stroke-miterlimit: 4; fill: rgb(0,0,0); fill-rule: nonzero; opacity: 1;" vector-effect="non-scaling-stroke"  transform=" translate(0.59, -10)" d="M 0 0 C 0.33 0 0.66 0 1 0 C 0.47594437 6.69007182 -0.10463925 13.3487487 -1 20 C -1.33 20 -1.66 20 -2 20 C -2.05425226 17.60385874 -2.09379027 15.20896147 -2.125 12.8125 C -2.14175781 12.13896484 -2.15851563 11.46542969 -2.17578125 10.77148438 C -2.21538674 6.71192193 -1.80020002 3.65001185 0 0 Z" stroke-linecap="round" />
</g>
		<g transform="matrix(1 0 0 1 148.85 51.65)"  >
<path style="stroke: none; stroke-width: 1; stroke-dasharray: none; stroke-linecap: butt; stroke-dashoffset: 0; stroke-linejoin: miter; stroke-miterlimit: 4; fill: rgb(0,0,0); fill-rule: nonzero; opacity: 1;" vector-effect="non-scaling-stroke"  transform=" translate(-7, -3)" d="M 0 0 C 1.77155654 0.11429397 3.54226229 0.24183037 5.3125 0.375 C 6.79169922 0.47941406 6.79169922 0.47941406 8.30078125 0.5859375 C 11 1 11 1 14 3 C 13.01 3.495 13.01 3.495 12 4 C 12.33 4.66 12.66 5.32 13 6 C 8.14036821 5.39254603 4.2594482 3.27241033 0 1 C 0 0.67 0 0.34 0 0 Z" stroke-linecap="round" />
</g>
		<g transform="matrix(1 0 0 1 134.85 44.65)"  >
<path style="stroke: none; stroke-width: 1; stroke-dasharray: none; stroke-linecap: butt; stroke-dashoffset: 0; stroke-linejoin: miter; stroke-miterlimit: 4; fill: rgb(0,0,0); fill-rule: nonzero; opacity: 1;" vector-effect="non-scaling-stroke"  transform=" translate(-7, -4)" d="M 0 0 C 2.31 0.33 4.62 0.66 7 1 C 7.33 1.99 7.66 2.98 8 4 C 9.93618425 4.67156616 9.93618425 4.67156616 12 5 C 12.66 5.33 13.32 5.66 14 6 C 14 6.66 14 7.32 14 8 C 8.76481294 6.56032356 4.36973991 4.18303389 0 1 C 0 0.67 0 0.34 0 0 Z" stroke-linecap="round" />
</g>
		<g transform="matrix(1 0 0 1 280.85 17.65)"  >
<path style="stroke: none; stroke-width: 1; stroke-dasharray: none; stroke-linecap: butt; stroke-dashoffset: 0; stroke-linejoin: miter; stroke-miterlimit: 4; fill: rgb(0,0,0); fill-rule: nonzero; opacity: 1;" vector-effect="non-scaling-stroke"  transform=" translate(-5, -6)" d="M 0 0 C 3.87051275 3.07881696 7.02911382 6.00073014 10 10 C 9.67 10.66 9.34 11.32 9 12 C 6.625 11.375 6.625 11.375 4 10 C 2.8125 7.125 2.8125 7.125 2 4 C 1.36184656 2.65278717 0.70674629 1.31252882 0 0 Z" stroke-linecap="round" />
</g>
		<g transform="matrix(1 0 0 1 -93.15 -168.35)"  >
<path style="stroke: none; stroke-width: 1; stroke-dasharray: none; stroke-linecap: butt; stroke-dashoffset: 0; stroke-linejoin: miter; stroke-miterlimit: 4; fill: rgb(0,0,0); fill-rule: nonzero; opacity: 1;" vector-effect="non-scaling-stroke"  transform=" translate(-7, -5)" d="M 0 0 C 4.62 0 9.24 0 14 0 C 14 0.33 14 0.66 14 1 C 10.37 1.33 6.74 1.66 3 2 C 3.66 3.65 4.32 5.3 5 7 C 4.67 7.99 4.34 8.98 4 10 C 0 4.5 0 4.5 0 0 Z" stroke-linecap="round" />
</g>
		<g transform="matrix(1 0 0 1 76.35 -6.85)"  >
<path style="stroke: none; stroke-width: 1; stroke-dasharray: none; stroke-linecap: butt; stroke-dashoffset: 0; stroke-linejoin: miter; stroke-miterlimit: 4; fill: rgb(0,0,0); fill-rule: nonzero; opacity: 1;" vector-effect="non-scaling-stroke"  transform=" translate(-4.5, -4.5)" d="M 0 0 C 1.32 0 2.64 0 4 0 C 4.45375 1.11375 4.9075 2.2275 5.375 3.375 C 6.72465986 6.96199008 6.72465986 6.96199008 9 9 C 8.01 9 7.02 9 6 9 C 4.39453125 7.28515625 4.39453125 7.28515625 2.8125 5.0625 C 2.28269531 4.33160156 1.75289063 3.60070312 1.20703125 2.84765625 C 0 1 0 1 0 0 Z" stroke-linecap="round" />
</g>
		<g transform="matrix(1 0 0 1 122.85 37.15)"  >
<path style="stroke: none; stroke-width: 1; stroke-dasharray: none; stroke-linecap: butt; stroke-dashoffset: 0; stroke-linejoin: miter; stroke-miterlimit: 4; fill: rgb(0,0,0); fill-rule: nonzero; opacity: 1;" vector-effect="non-scaling-stroke"  transform=" translate(-5, -3.5)" d="M 0 0 C 6.44807122 0.60830861 6.44807122 0.60830861 8.9375 2.375 C 10 4 10 4 10 7 C 5.56541027 5.6062718 3.12621626 3.39417765 0 0 Z" stroke-linecap="round" />
</g>
		<g transform="matrix(1 0 0 1 -199.52 -135.35)"  >
<path style="stroke: none; stroke-width: 1; stroke-dasharray: none; stroke-linecap: butt; stroke-dashoffset: 0; stroke-linejoin: miter; stroke-miterlimit: 4; fill: rgb(0,0,0); fill-rule: nonzero; opacity: 1;" vector-effect="non-scaling-stroke"  transform=" translate(-0.62, -7)" d="M 0 0 C 0.99 0 1.98 0 3 0 C 2.21824485 4.84688192 0.60155722 9.3766367 -1 14 C -2.13732426 10.59598052 -1.83989957 8.22543336 -1.0625 4.75 C -0.86785156 3.85796875 -0.67320313 2.9659375 -0.47265625 2.046875 C -0.31667969 1.37140625 -0.16070312 0.6959375 0 0 Z" stroke-linecap="round" />
</g>
		<g transform="matrix(1 0 0 1 -65.65 127.65)"  >
<path style="stroke: none; stroke-width: 1; stroke-dasharray: none; stroke-linecap: butt; stroke-dashoffset: 0; stroke-linejoin: miter; stroke-miterlimit: 4; fill: rgb(0,0,0); fill-rule: nonzero; opacity: 1;" vector-effect="non-scaling-stroke"  transform=" translate(4.5, -6)" d="M 0 0 C 0.33 0.99 0.66 1.98 1 3 C -1.91423151 7.48343309 -5.31236927 9.65618464 -10 12 C -8.62845314 8.81580579 -7.13830017 7.02887404 -4.4375 4.875 C -1.78974334 2.79096366 -1.78974334 2.79096366 0 0 Z" stroke-linecap="round" />
</g>
		<g transform="matrix(1 0 0 1 108.85 26.65)"  >
<path style="stroke: none; stroke-width: 1; stroke-dasharray: none; stroke-linecap: butt; stroke-dashoffset: 0; stroke-linejoin: miter; stroke-miterlimit: 4; fill: rgb(0,0,0); fill-rule: nonzero; opacity: 1;" vector-effect="non-scaling-stroke"  transform=" translate(-5, -4)" d="M 0 0 C 2.31 0.33 4.62 0.66 7 1 C 7.12375 1.598125 7.2475 2.19625 7.375 2.8125 C 7.95475985 5.26231348 7.95475985 5.26231348 10 8 C 6.05205855 6.32971708 3.18203882 3.8204435 0 1 C 0 0.67 0 0.34 0 0 Z" stroke-linecap="round" />
</g>
		<g transform="matrix(1 0 0 1 192.35 -38.85)"  >
<path style="stroke: none; stroke-width: 1; stroke-dasharray: none; stroke-linecap: butt; stroke-dashoffset: 0; stroke-linejoin: miter; stroke-miterlimit: 4; fill: rgb(0,0,0); fill-rule: nonzero; opacity: 1;" vector-effect="non-scaling-stroke"  transform=" translate(-7.5, -3.5)" d="M 0 0 C 5.54050113 0.56825653 10.03715966 2.62886517 15 5 C 13.02 5.99 13.02 5.99 11 7 C 11 6.34 11 5.68 11 5 C 10.37351562 4.89042969 9.74703125 4.78085938 9.1015625 4.66796875 C 7.87566406 4.43013672 7.87566406 4.43013672 6.625 4.1875 C 5.81289063 4.03667969 5.00078125 3.88585937 4.1640625 3.73046875 C 2 3 2 3 0 0 Z" stroke-linecap="round" />
</g>
		<g transform="matrix(1 0 0 1 -311.26 -56.85)"  >
<path style="stroke: none; stroke-width: 1; stroke-dasharray: none; stroke-linecap: butt; stroke-dashoffset: 0; stroke-linejoin: miter; stroke-miterlimit: 4; fill: rgb(0,0,0); fill-rule: nonzero; opacity: 1;" vector-effect="non-scaling-stroke"  transform=" translate(1.11, -7.5)" d="M 0 0 C 1.10176129 3.35216734 0.89303058 5.75121078 0.1875 9.1875 C 0.01605469 10.06792969 -0.15539062 10.94835937 -0.33203125 11.85546875 C -0.55246094 12.56316406 -0.77289062 13.27085937 -1 14 C -1.99 14.495 -1.99 14.495 -3 15 C -2.44854729 9.76119922 -1.57077907 5.02649303 0 0 Z" stroke-linecap="round" />
</g>
		<g transform="matrix(1 0 0 1 61.85 -91.35)"  >
<path style="stroke: none; stroke-width: 1; stroke-dasharray: none; stroke-linecap: butt; stroke-dashoffset: 0; stroke-linejoin: miter; stroke-miterlimit: 4; fill: rgb(0,0,0); fill-rule: nonzero; opacity: 1;" vector-effect="non-scaling-stroke"  transform=" translate(-6, -3)" d="M 0 0 C 4.56454251 0.54339792 7.9728176 1.79463821 12 4 C 11.01 4.66 10.02 5.32 9 6 C 5.3125 4.625 5.3125 4.625 2 3 C 2 2.34 2 1.68 2 1 C 1.34 0.67 0.68 0.34 0 0 Z" stroke-linecap="round" />
</g>
		<g transform="matrix(1 0 0 1 290.35 -155.35)"  >
<path style="stroke: none; stroke-width: 1; stroke-dasharray: none; stroke-linecap: butt; stroke-dashoffset: 0; stroke-linejoin: miter; stroke-miterlimit: 4; fill: rgb(0,0,0); fill-rule: nonzero; opacity: 1;" vector-effect="non-scaling-stroke"  transform=" translate(-5.5, -4)" d="M 0 0 C 4.59306496 1.4859916 7.43569245 3.85014682 11 7 C 10.01 7.495 10.01 7.495 9 8 C 8.01 7.67 7.02 7.34 6 7 C 5.67 6.34 5.34 5.68 5 5 C 2.97536745 4.34786708 2.97536745 4.34786708 1 4 C 0.67 2.68 0.34 1.36 0 0 Z" stroke-linecap="round" />
</g>
		<g transform="matrix(1 0 0 1 180.85 172.65)"  >
<path style="stroke: none; stroke-width: 1; stroke-dasharray: none; stroke-linecap: butt; stroke-dashoffset: 0; stroke-linejoin: miter; stroke-miterlimit: 4; fill: rgb(0,0,0); fill-rule: nonzero; opacity: 1;" vector-effect="non-scaling-stroke"  transform=" translate(-5, -2)" d="M 0 0 C 6.625 0.625 6.625 0.625 10 4 C 6.7 4 3.4 4 0 4 C 0 2.68 0 1.36 0 0 Z" stroke-linecap="round" />
</g>
		<g transform="matrix(1 0 0 1 257.85 -5.85)"  >
<path style="stroke: none; stroke-width: 1; stroke-dasharray: none; stroke-linecap: butt; stroke-dashoffset: 0; stroke-linejoin: miter; stroke-miterlimit: 4; fill: rgb(0,0,0); fill-rule: nonzero; opacity: 1;" vector-effect="non-scaling-stroke"  transform=" translate(-5, -3.5)" d="M 0 0 C 3.94139078 1.66751148 6.7892812 4.22710649 10 7 C 7.37886292 7 5.49064888 6.68707555 3 6 C 3 5.34 3 4.68 3 4 C 2.34 4 1.68 4 1 4 C 0.67 2.68 0.34 1.36 0 0 Z" stroke-linecap="round" />
</g>
		<g transform="matrix(1 0 0 1 46.82 -63.35)"  >
<path style="stroke: none; stroke-width: 1; stroke-dasharray: none; stroke-linecap: butt; stroke-dashoffset: 0; stroke-linejoin: miter; stroke-miterlimit: 4; fill: rgb(0,0,0); fill-rule: nonzero; opacity: 1;" vector-effect="non-scaling-stroke"  transform=" translate(-1.97, -8)" d="M 0 0 C 3.01343955 3.32851768 3.44667544 5.81882813 3.6875 10.25 C 3.75324219 11.32765625 3.81898438 12.4053125 3.88671875 13.515625 C 3.92410156 14.33546875 3.96148437 15.1553125 4 16 C 0.78235549 11.17353323 -0.36261136 5.80178176 0 0 Z" stroke-linecap="round" />
</g>
		<g transform="matrix(1 0 0 1 278.35 105.15)"  >
<path style="stroke: none; stroke-width: 1; stroke-dasharray: none; stroke-linecap: butt; stroke-dashoffset: 0; stroke-linejoin: miter; stroke-miterlimit: 4; fill: rgb(0,0,0); fill-rule: nonzero; opacity: 1;" vector-effect="non-scaling-stroke"  transform=" translate(-6.5, -2.5)" d="M 0 0 C 1.43836751 0.11458693 2.87570966 0.24209116 4.3125 0.375 C 5.51326172 0.47941406 5.51326172 0.47941406 6.73828125 0.5859375 C 9 1 9 1 12 3 C 12.33 3.66 12.66 4.32 13 5 C 8.39146203 4.27991594 4.32762591 2.68704061 0 1 C 0 0.67 0 0.34 0 0 Z" stroke-linecap="round" />
</g>
		<g transform="matrix(1 0 0 1 59.35 -31.85)"  >
<path style="stroke: none; stroke-width: 1; stroke-dasharray: none; stroke-linecap: butt; stroke-dashoffset: 0; stroke-linejoin: miter; stroke-miterlimit: 4; fill: rgb(0,0,0); fill-rule: nonzero; opacity: 1;" vector-effect="non-scaling-stroke"  transform=" translate(-3.5, -6.5)" d="M 0 0 C 0.66 0 1.32 0 2 0 C 2.45375 1.134375 2.9075 2.26875 3.375 3.4375 C 4.57095806 7.04721692 4.57095806 7.04721692 7 8 C 7 9.65 7 11.3 7 13 C 0 4.79310345 0 4.79310345 0 0 Z" stroke-linecap="round" />
</g>
		<g transform="matrix(1 0 0 1 -205.26 117.15)"  >
<path style="stroke: none; stroke-width: 1; stroke-dasharray: none; stroke-linecap: butt; stroke-dashoffset: 0; stroke-linejoin: miter; stroke-miterlimit: 4; fill: rgb(0,0,0); fill-rule: nonzero; opacity: 1;" vector-effect="non-scaling-stroke"  transform=" translate(-1.89, -6.5)" d="M 0 0 C 1.57554035 2.88628401 2.46276373 5.53342384 3.125 8.75 C 3.29257813 9.54921875 3.46015625 10.3484375 3.6328125 11.171875 C 3.81457031 12.07679688 3.81457031 12.07679688 4 13 C 2 11.5625 2 11.5625 0 9 C -0.35442445 5.97175582 -0.23347235 3.03514061 0 0 Z" stroke-linecap="round" />
</g>
		<g transform="matrix(1 0 0 1 154.35 162.18)"  >
<path style="stroke: none; stroke-width: 1; stroke-dasharray: none; stroke-linecap: butt; stroke-dashoffset: 0; stroke-linejoin: miter; stroke-miterlimit: 4; fill: rgb(0,0,0); fill-rule: nonzero; opacity: 1;" vector-effect="non-scaling-stroke"  transform=" translate(-5.5, -2.53)" d="M 0 0 C 1.46067199 0.45082469 2.91848032 0.91093537 4.375 1.375 C 5.18710937 1.63023437 5.99921875 1.88546875 6.8359375 2.1484375 C 9 3 9 3 11 5 C 5.25 5.125 5.25 5.125 3 4 C 3 3.34 3 2.68 3 2 C 2.01 1.67 1.02 1.34 0 1 C 0 0.67 0 0.34 0 0 Z" stroke-linecap="round" />
</g>
		<g transform="matrix(1 0 0 1 -310.05 53.65)"  >
<path style="stroke: none; stroke-width: 1; stroke-dasharray: none; stroke-linecap: butt; stroke-dashoffset: 0; stroke-linejoin: miter; stroke-miterlimit: 4; fill: rgb(0,0,0); fill-rule: nonzero; opacity: 1;" vector-effect="non-scaling-stroke"  transform=" translate(-2.1, -7)" d="M 0 0 C 0.33 0 0.66 0 1 0 C 4.44419134 9.41002278 4.44419134 9.41002278 4 14 C 2 11 2 11 2 8 C 1.34 8 0.68 8 0 8 C 0 5.36 0 2.72 0 0 Z" stroke-linecap="round" />
</g>
		<g transform="matrix(1 0 0 1 90.85 10.65)"  >
<path style="stroke: none; stroke-width: 1; stroke-dasharray: none; stroke-linecap: butt; stroke-dashoffset: 0; stroke-linejoin: miter; stroke-miterlimit: 4; fill: rgb(0,0,0); fill-rule: nonzero; opacity: 1;" vector-effect="non-scaling-stroke"  transform=" translate(-3, -3)" d="M 0 0 C 1.65 0 3.3 0 5 0 C 5.33 1.98 5.66 3.96 6 6 C 2.26360784 4.75453595 1.81243487 3.36595047 0 0 Z" stroke-linecap="round" />
</g>
		<g transform="matrix(1 0 0 1 204.85 -33.85)"  >
<path style="stroke: none; stroke-width: 1; stroke-dasharray: none; stroke-linecap: butt; stroke-dashoffset: 0; stroke-linejoin: miter; stroke-miterlimit: 4; fill: rgb(0,0,0); fill-rule: nonzero; opacity: 1;" vector-effect="non-scaling-stroke"  transform=" translate(-5, -2.5)" d="M 0 0 C 2.76276177 0.52268466 5.3260876 1.10869587 8 2 C 8 2.66 8 3.32 8 4 C 8.66 4.33 9.32 4.66 10 5 C 7.69 4.67 5.38 4.34 3 4 C 2.67 3.01 2.34 2.02 2 1 C 1.34 0.67 0.68 0.34 0 0 Z" stroke-linecap="round" />
</g>
		<g transform="matrix(1 0 0 1 288.85 -68.02)"  >
<path style="stroke: none; stroke-width: 1; stroke-dasharray: none; stroke-linecap: butt; stroke-dashoffset: 0; stroke-linejoin: miter; stroke-miterlimit: 4; fill: rgb(0,0,0); fill-rule: nonzero; opacity: 1;" vector-effect="non-scaling-stroke"  transform=" translate(5, -1.33)" d="M 0 0 C -0.33 0.66 -0.66 1.32 -1 2 C -3.06640625 2.6328125 -3.06640625 2.6328125 -5.5625 3.125 C -6.38878906 3.29257813 -7.21507812 3.46015625 -8.06640625 3.6328125 C -8.70449219 3.75398438 -9.34257813 3.87515625 -10 4 C -4.4 -2.2 -4.4 -2.2 0 0 Z" stroke-linecap="round" />
</g>
		<g transform="matrix(1 0 0 1 235.85 -129.35)"  >
<path style="stroke: none; stroke-width: 1; stroke-dasharray: none; stroke-linecap: butt; stroke-dashoffset: 0; stroke-linejoin: miter; stroke-miterlimit: 4; fill: rgb(0,0,0); fill-rule: nonzero; opacity: 1;" vector-effect="non-scaling-stroke"  transform=" translate(-1, -4)" d="M 0 0 C 0.66 0 1.32 0 2 0 C 2.33 1.98 2.66 3.96 3 6 C 2.34 6 1.68 6 1 6 C 1 6.66 1 7.32 1 8 C 0.34 8 -0.32 8 -1 8 C -0.67 5.36 -0.34 2.72 0 0 Z" stroke-linecap="round" />
</g>
		<g transform="matrix(1 0 0 1 -186.15 -173.32)"  >
<path style="stroke: none; stroke-width: 1; stroke-dasharray: none; stroke-linecap: butt; stroke-dashoffset: 0; stroke-linejoin: miter; stroke-miterlimit: 4; fill: rgb(0,0,0); fill-rule: nonzero; opacity: 1;" vector-effect="non-scaling-stroke"  transform=" translate(8, -1.03)" d="M 0 0 C -0.33 0.99 -0.66 1.98 -1 3 C -1.33 2.34 -1.66 1.68 -2 1 C -6.62 1 -11.24 1 -16 1 C -16 0.67 -16 0.34 -16 0 C -13.89651926 -0.19504458 -11.79217415 -0.38078496 -9.6875 -0.5625 C -8.51574219 -0.66691406 -7.34398437 -0.77132813 -6.13671875 -0.87890625 C -3 -1 -3 -1 0 0 Z" stroke-linecap="round" />
</g>
		<g transform="matrix(1 0 0 1 68.35 103.15)"  >
<path style="stroke: none; stroke-width: 1; stroke-dasharray: none; stroke-linecap: butt; stroke-dashoffset: 0; stroke-linejoin: miter; stroke-miterlimit: 4; fill: rgb(0,0,0); fill-rule: nonzero; opacity: 1;" vector-effect="non-scaling-stroke"  transform=" translate(-4.5, -4.5)" d="M 0 0 C 1.12894876 0.93274109 2.25300876 1.87140122 3.375 2.8125 C 4.00148438 3.33457031 4.62796875 3.85664063 5.2734375 4.39453125 C 7 6 7 6 9 9 C 8.01 9 7.02 9 6 9 C 6 8.34 6 7.68 6 7 C 5.01 6.67 4.02 6.34 3 6 C 0 2.55555556 0 2.55555556 0 0 Z" stroke-linecap="round" />
</g>
		<g transform="matrix(1 0 0 1 -78.65 -73.35)"  >
<path style="stroke: none; stroke-width: 1; stroke-dasharray: none; stroke-linecap: butt; stroke-dashoffset: 0; stroke-linejoin: miter; stroke-miterlimit: 4; fill: rgb(0,0,0); fill-rule: nonzero; opacity: 1;" vector-effect="non-scaling-stroke"  transform=" translate(-3.5, -3)" d="M 0 0 C 1.32 0 2.64 0 4 0 C 4.99 1.98 5.98 3.96 7 6 C 2.32307692 4.52307692 2.32307692 4.52307692 0.6875 1.875 C 0.460625 1.25625 0.23375 0.6375 0 0 Z" stroke-linecap="round" />
</g>
		<g transform="matrix(1 0 0 1 -236.15 157.65)"  >
<path style="stroke: none; stroke-width: 1; stroke-dasharray: none; stroke-linecap: butt; stroke-dashoffset: 0; stroke-linejoin: miter; stroke-miterlimit: 4; fill: rgb(0,0,0); fill-rule: nonzero; opacity: 1;" vector-effect="non-scaling-stroke"  transform=" translate(-5, -3)" d="M 0 0 C 4.75 0.875 4.75 0.875 7 2 C 7 2.66 7 3.32 7 4 C 7.99 4.33 8.98 4.66 10 5 C 9.01 5.495 9.01 5.495 8 6 C 6.0546875 5.0390625 6.0546875 5.0390625 3.875 3.625 C 3.15054688 3.16351563 2.42609375 2.70203125 1.6796875 2.2265625 C 1.12539062 1.82179688 0.57109375 1.41703125 0 1 C 0 0.67 0 0.34 0 0 Z" stroke-linecap="round" />
</g>
		<g transform="matrix(1 0 0 1 -289.15 -105.85)"  >
<path style="stroke: none; stroke-width: 1; stroke-dasharray: none; stroke-linecap: butt; stroke-dashoffset: 0; stroke-linejoin: miter; stroke-miterlimit: 4; fill: rgb(0,0,0); fill-rule: nonzero; opacity: 1;" vector-effect="non-scaling-stroke"  transform=" translate(1, -4.5)" d="M 0 0 C 0.66 1.32 1.32 2.64 2 4 C 1.071875 4.12375 1.071875 4.12375 0.125 4.25 C -2.18437567 4.81258459 -2.18437567 4.81258459 -3.25 7.0625 C -3.4975 7.701875 -3.745 8.34125 -4 9 C -4 5.00095031 -2.27413033 3.19799578 0 0 Z" stroke-linecap="round" />
</g>
		<g transform="matrix(1 0 0 1 -195.15 145.15)"  >
<path style="stroke: none; stroke-width: 1; stroke-dasharray: none; stroke-linecap: butt; stroke-dashoffset: 0; stroke-linejoin: miter; stroke-miterlimit: 4; fill: rgb(0,0,0); fill-rule: nonzero; opacity: 1;" vector-effect="non-scaling-stroke"  transform=" translate(-2, -4.5)" d="M 0 0 C 1.99097846 2.98646769 2.94124926 5.59687262 4 9 C 2.68 8.67 1.36 8.34 0 8 C 0 5.36 0 2.72 0 0 Z" stroke-linecap="round" />
</g>
		<g transform="matrix(1 0 0 1 45.35 72.65)"  >
<path style="stroke: none; stroke-width: 1; stroke-dasharray: none; stroke-linecap: butt; stroke-dashoffset: 0; stroke-linejoin: miter; stroke-miterlimit: 4; fill: rgb(0,0,0); fill-rule: nonzero; opacity: 1;" vector-effect="non-scaling-stroke"  transform=" translate(-2.5, -3)" d="M 0 0 C 0.99 0.33 1.98 0.66 3 1 C 4.1875 3.5625 4.1875 3.5625 5 6 C 3.35 6 1.7 6 0 6 C 0 4.02 0 2.04 0 0 Z" stroke-linecap="round" />
</g>
		<g transform="matrix(1 0 0 1 161.85 -51.35)"  >
<path style="stroke: none; stroke-width: 1; stroke-dasharray: none; stroke-linecap: butt; stroke-dashoffset: 0; stroke-linejoin: miter; stroke-miterlimit: 4; fill: rgb(0,0,0); fill-rule: nonzero; opacity: 1;" vector-effect="non-scaling-stroke"  transform=" translate(-4, -2)" d="M 0 0 C 2.76276177 0.52268466 5.3260876 1.10869587 8 2 C 8 2.66 8 3.32 8 4 C 5.69 3.67 3.38 3.34 1 3 C 0.67 2.01 0.34 1.02 0 0 Z" stroke-linecap="round" />
</g>
		<g transform="matrix(1 0 0 1 250.85 -70.85)"  >
<path style="stroke: none; stroke-width: 1; stroke-dasharray: none; stroke-linecap: butt; stroke-dashoffset: 0; stroke-linejoin: miter; stroke-miterlimit: 4; fill: rgb(0,0,0); fill-rule: nonzero; opacity: 1;" vector-effect="non-scaling-stroke"  transform=" translate(-4, -2.5)" d="M 0 0 C 2.31 0.33 4.62 0.66 7 1 C 7.33 2.32 7.66 3.64 8 5 C 2.25 3.375 2.25 3.375 0 0 Z" stroke-linecap="round" />
</g>
		<g transform="matrix(1 0 0 1 -98.15 -173.35)"  >
<path style="stroke: none; stroke-width: 1; stroke-dasharray: none; stroke-linecap: butt; stroke-dashoffset: 0; stroke-linejoin: miter; stroke-miterlimit: 4; fill: rgb(0,0,0); fill-rule: nonzero; opacity: 1;" vector-effect="non-scaling-stroke"  transform=" translate(-5, -2)" d="M 0 0 C 3.3 0.33 6.6 0.66 10 1 C 10 1.33 10 1.66 10 2 C 7.69 2 5.38 2 3 2 C 2.67 2.66 2.34 3.32 2 4 C 1.34 2.68 0.68 1.36 0 0 Z" stroke-linecap="round" />
</g>
		<g transform="matrix(1 0 0 1 -41.53 95.15)"  >
<path style="stroke: none; stroke-width: 1; stroke-dasharray: none; stroke-linecap: butt; stroke-dashoffset: 0; stroke-linejoin: miter; stroke-miterlimit: 4; fill: rgb(0,0,0); fill-rule: nonzero; opacity: 1;" vector-effect="non-scaling-stroke"  transform=" translate(1.38, -4.5)" d="M 0 0 C 0.33 0 0.66 0 1 0 C 1.3125 2.25 1.3125 2.25 1 5 C -1.5 7.3125 -1.5 7.3125 -4 9 C -2.80100302 5.9168649 -1.52299523 2.93720508 0 0 Z" stroke-linecap="round" />
</g>
		<g transform="matrix(1 0 0 1 -38.15 -69.42)"  >
<path style="stroke: none; stroke-width: 1; stroke-dasharray: none; stroke-linecap: butt; stroke-dashoffset: 0; stroke-linejoin: miter; stroke-miterlimit: 4; fill: rgb(0,0,0); fill-rule: nonzero; opacity: 1;" vector-effect="non-scaling-stroke"  transform=" translate(5, -0.94)" d="M 0 0 C -6.625 3.125 -6.625 3.125 -10 2 C -6.86358686 -1.13641314 -4.14410883 -1.38136961 0 0 Z" stroke-linecap="round" />
</g>
		<g transform="matrix(1 0 0 1 309.85 -135.35)"  >
<path style="stroke: none; stroke-width: 1; stroke-dasharray: none; stroke-linecap: butt; stroke-dashoffset: 0; stroke-linejoin: miter; stroke-miterlimit: 4; fill: rgb(0,0,0); fill-rule: nonzero; opacity: 1;" vector-effect="non-scaling-stroke"  transform=" translate(-3, -3)" d="M 0 0 C 2.97 1.98 2.97 1.98 6 4 C 5.67 4.66 5.34 5.32 5 6 C 3.35 5.67 1.7 5.34 0 5 C 0 3.35 0 1.7 0 0 Z" stroke-linecap="round" />
</g>
		<g transform="matrix(1 0 0 1 -265.65 -135.35)"  >
<path style="stroke: none; stroke-width: 1; stroke-dasharray: none; stroke-linecap: butt; stroke-dashoffset: 0; stroke-linejoin: miter; stroke-miterlimit: 4; fill: rgb(0,0,0); fill-rule: nonzero; opacity: 1;" vector-effect="non-scaling-stroke"  transform=" translate(2.5, -3)" d="M 0 0 C 0 3 0 3 -1.5 4.6875 C -1.995 5.120625 -2.49 5.55375 -3 6 C -3.66 5.67 -4.32 5.34 -5 5 C -4.1875 3.0625 -4.1875 3.0625 -3 1 C -2.01 0.67 -1.02 0.34 0 0 Z" stroke-linecap="round" />
</g>
</g>
</g>
</svg>